<svg width="20" height="20" viewBox="0 0 20 20" fill="none" xmlns="http://www.w3.org/2000/svg">
<path d="M10.0529 0.000139765C8.07509 -0.0103147 6.13863 0.56594 4.48836 1.65603C2.83809 2.74613 1.54813 4.3011 0.781594 6.12432C0.0150615 7.94754 -0.193614 9.95711 0.181957 11.8989C0.557527 13.8407 1.50048 15.6276 2.89156 17.0335C4.28264 18.4394 6.05939 19.4012 7.99711 19.7974C9.93484 20.1935 11.9465 20.0061 13.7778 19.259C15.609 18.5118 17.1776 17.2384 18.2851 15.5998C19.3926 13.9612 19.9894 12.0309 19.9999 10.0531C20.0113 7.40176 18.9704 4.85415 17.1055 2.96942C15.2406 1.08468 12.7042 0.0168022 10.0529 0.000139765ZM13.9449 14.5701C13.8908 14.65 13.8213 14.7182 13.7404 14.7706C13.6595 14.8231 13.5689 14.8588 13.474 14.8756C13.379 14.8924 13.2817 14.8899 13.1877 14.8684C13.0937 14.8468 13.005 14.8066 12.9269 14.7501C12.1051 14.2631 11.1671 14.0071 10.2119 14.0091C9.25907 14.0002 8.32266 14.2572 7.50786 14.7511C7.42858 14.8146 7.33678 14.8605 7.23848 14.886C7.14018 14.9114 7.03761 14.9158 6.93751 14.8988C6.83741 14.8818 6.74203 14.8438 6.65764 14.7873C6.57325 14.7309 6.50176 14.6572 6.44786 14.5711C6.38622 14.4912 6.3418 14.3993 6.31738 14.3013C6.29297 14.2033 6.28909 14.1013 6.306 14.0018C6.3229 13.9022 6.36023 13.8072 6.41562 13.7228C6.47101 13.6384 6.54327 13.5663 6.62786 13.5111C7.6848 12.8224 8.91833 12.4539 10.1799 12.4501C11.4439 12.4592 12.6794 12.8268 13.7429 13.5101C13.8252 13.5676 13.8948 13.6415 13.9473 13.7271C13.9999 13.8127 14.0342 13.9082 14.0482 14.0077C14.0622 14.1072 14.0555 14.2084 14.0286 14.3052C14.0017 14.402 13.9552 14.4922 13.8919 14.5701H13.9449ZM15.2279 11.6331C15.1555 11.7353 15.0604 11.8192 14.95 11.8782C14.8396 11.9373 14.717 11.9697 14.5919 11.9731C14.4274 11.9761 14.2668 11.9236 14.1359 11.8241C12.9011 11.0881 11.4904 10.6995 10.0529 10.6995C8.61537 10.6995 7.20461 11.0881 5.96986 11.8241C5.79827 11.9436 5.58624 11.99 5.38042 11.9532C5.1746 11.9163 4.99184 11.7992 4.87236 11.6276C4.75288 11.456 4.70646 11.244 4.74331 11.0382C4.78016 10.8324 4.89727 10.6496 5.06886 10.5301C6.56521 9.60099 8.2915 9.10862 10.0529 9.10862C11.8142 9.10862 13.5405 9.60099 15.0369 10.5301C15.1186 10.5933 15.187 10.6721 15.2382 10.7618C15.2894 10.8515 15.3223 10.9505 15.3351 11.053C15.348 11.1555 15.3404 11.2595 15.3129 11.359C15.2854 11.4586 15.2385 11.5518 15.1749 11.6331H15.2279ZM16.7229 8.69614C16.6422 8.79904 16.5391 8.88217 16.4214 8.93918C16.3038 8.9962 16.1746 9.0256 16.0439 9.02514C15.8598 9.01851 15.6822 8.9557 15.5349 8.84514C13.9176 7.74641 12.0075 7.15894 10.0524 7.15894C8.09719 7.15894 6.18711 7.74641 4.56986 8.84514C4.39035 8.97595 4.16711 9.03204 3.94709 9.00163C3.72707 8.97122 3.52741 8.85666 3.39012 8.68207C3.25282 8.50747 3.18859 8.28643 3.21092 8.06544C3.23325 7.84446 3.34041 7.64074 3.50986 7.49714C5.42624 6.17143 7.70113 5.46125 10.0314 5.46125C12.3616 5.46125 14.6365 6.17143 16.5529 7.49714C16.7233 7.64328 16.8307 7.84966 16.8525 8.07311C16.8743 8.29657 16.8088 8.51981 16.6699 8.69614H16.7229Z" fill="white"/>
</svg>
