<svg width="30" height="42" viewBox="0 0 30 42" fill="none" xmlns="http://www.w3.org/2000/svg">
<path d="M15.4941 0.105469C24.1465 0.105469 28.4727 3.61133 28.4727 10.623C28.4727 12.1465 28.0918 13.7578 27.3301 15.457C26.5684 17.1562 25.6602 18.6211 24.6055 19.8516L15.9043 30.3105C14.5957 31.7949 13.043 33.2891 11.2461 34.793L10.2793 35.6426L10.5723 36.2871C12.4277 35.9355 14.3906 35.7598 16.4609 35.7598H21.207C21.4805 33.5527 21.9785 31.834 22.7012 30.6035L28.3848 30.9551C29.2832 32.459 29.7324 34.8809 29.7324 38.2207C29.7324 39.627 29.5859 40.8867 29.293 42H1.75391L0.318359 34.5586L15.2598 18.3574C18.0527 15.291 19.4492 12.3711 19.4492 9.59766C19.4492 8.13281 19.0977 7.06836 18.3945 6.4043C17.8867 5.93555 17.1152 5.63281 16.0801 5.49609C15.0449 5.35937 13.9512 5.35937 12.7988 5.49609C11.6465 5.61328 10.6504 5.83789 9.81055 6.16992C9.41992 9.1582 8.95117 11.1016 8.4043 12L3.07227 11.707C2.33008 10.3984 1.91016 8.17187 1.8125 5.02734C1.8125 4.69531 1.8125 4.41211 1.8125 4.17773C1.83203 3.92383 1.85156 3.72852 1.87109 3.5918C5.48438 1.26758 10.0254 0.105469 15.4941 0.105469Z" fill="#F8ED9B"/>
</svg>
