<svg width="177" height="119" viewBox="0 0 177 119" fill="none" xmlns="http://www.w3.org/2000/svg">
<path d="M174.932 17.5516C177.547 24.0661 177.66 31.2789 175.245 37.6216C174.053 40.7506 172.274 43.5712 170.01 45.9217C167.745 48.2723 165.04 50.1067 162.049 51.3199L88.9219 80.825C88.0979 81.1575 87.1659 81.1251 86.3309 80.735C85.496 80.3449 84.8265 79.629 84.4698 78.7449C84.113 77.8607 84.0983 76.8807 84.4287 76.0203C84.7591 75.16 85.4077 74.4899 86.2317 74.1575L159.341 44.6593C161.527 43.7691 163.501 42.4211 165.148 40.6939C166.795 38.9667 168.082 36.8948 168.935 34.5989C170.702 29.9835 170.62 24.7291 168.707 19.9883C166.794 15.2474 163.207 11.4073 158.732 9.31014C156.524 8.26467 154.162 7.68108 151.783 7.59321C149.404 7.50535 147.055 7.91495 144.872 8.79829L50.7686 46.7671L65.2006 82.536L75.0024 78.5812C75.8264 78.2487 76.7584 78.2811 77.5933 78.6712C78.4283 79.0613 79.0978 79.7772 79.4545 80.6613C79.8112 81.5455 79.826 82.5255 79.4956 83.3858C79.1652 84.2461 78.5166 84.9162 77.6926 85.2487L64.8009 90.4502C64.3934 90.6124 63.9557 90.6871 63.5125 90.6702C63.0672 90.6583 62.6244 90.553 62.2098 90.3606C61.8005 90.1575 61.4253 89.881 61.1019 89.544C60.7876 89.2013 60.5375 88.8 60.366 88.3631L43.2735 46.0004C43.0924 45.5646 42.9939 45.0995 42.9837 44.6321C42.9736 44.1647 43.052 43.7044 43.2144 43.278C43.3768 42.8517 43.62 42.4678 43.9297 42.1488C44.2394 41.8298 44.6094 41.582 45.0183 41.4199L142.212 2.20443C148.277 -0.219864 155.126 0.0342557 161.26 2.9111C167.393 5.78794 172.309 11.0528 174.932 17.5516Z" fill="#010101"/>
<path d="M105.229 61.2607L157.349 40.2314C160.679 38.8875 163.304 36.1873 164.645 32.7247C165.987 29.262 165.935 25.3206 164.501 21.7675C163.068 18.2144 160.37 15.3406 157.001 13.7784C153.632 12.2162 149.869 12.0935 146.538 13.4373L94.4177 34.4667L105.229 61.2607Z" fill="#E94445"/>
<path d="M23.2336 58.8583C22.3033 59.7827 21.6892 60.9694 21.4933 62.2213C21.3045 63.475 21.5393 64.7167 22.1601 65.7464C22.7945 66.771 23.782 67.5143 24.9588 67.8531C26.0961 68.2111 27.3573 68.1614 28.5377 67.7122C28.0582 68.9018 27.984 70.1821 28.3273 71.3431C28.673 72.5058 29.4106 73.4826 30.4226 74.1178C31.4366 74.7585 32.6749 75.0061 33.927 74.8186C35.2087 74.6319 36.4284 74.016 37.3828 73.0735C37.8373 72.6151 38.2149 72.0877 38.4985 71.5153C38.8192 70.8839 39.0281 70.2101 39.1152 69.5265C39.1571 69.2399 39.1655 68.9525 39.1402 68.6703L39.6475 56.8777L39.3917 56.6207L27.1296 57.0268C26.4046 57.0562 25.679 57.2248 24.9924 57.5233C24.3212 57.8367 23.703 58.2676 23.1696 58.7941L23.2336 58.8583Z" fill="#E94445"/>
<path d="M22.5907 87.8826C22.0174 88.7721 21.7387 89.8137 21.8009 90.8342C21.8689 91.8551 22.2689 92.7931 22.9363 93.4973C23.6135 94.1951 24.5205 94.6101 25.5066 94.6736C26.4649 94.759 27.4503 94.5016 28.303 93.9433C28.1308 94.9639 28.2938 95.9858 28.7653 96.8415C29.2389 97.6981 29.9893 98.3404 30.8968 98.666C31.8068 98.9955 32.8257 98.9765 33.78 98.612C34.758 98.2431 35.6127 97.5467 36.2019 96.6387C36.4808 96.1988 36.6872 95.7178 36.8117 95.2176C36.9552 94.6645 37.0033 94.0973 36.9537 93.5434C36.9372 93.3103 36.8941 93.0823 36.8253 92.8642L35.185 83.4819L34.9389 83.3236L25.3446 85.765C24.7782 85.9137 24.2355 86.1721 23.746 86.5261C23.2711 86.8892 22.8585 87.3358 22.5292 87.843L22.5907 87.8826Z" fill="#E94445"/>
<path d="M73.8788 50.6133C73.0064 50.9644 72.2697 51.577 71.7912 52.3493C71.3167 53.1247 71.1255 54.0105 71.2483 54.8638C71.3816 55.7175 71.8265 56.484 72.5093 57.0361C73.1607 57.5898 74.0077 57.9088 74.9127 57.9413C74.2641 58.5933 73.858 59.4184 73.7609 60.281C73.6649 61.1455 73.8797 61.9965 74.3709 62.6984C74.862 63.4044 75.6109 63.9134 76.4903 64.1388C77.3891 64.373 78.3665 64.3064 79.2599 63.95C79.6879 63.774 80.0845 63.531 80.4315 63.232C80.8194 62.9044 81.1454 62.5176 81.3936 62.0903C81.5013 61.9127 81.5869 61.7252 81.649 61.5317L85.2736 53.8836L85.1763 53.6425L76.9632 50.4902C76.4761 50.3074 75.9498 50.2164 75.413 50.2221C74.8822 50.2418 74.3536 50.354 73.8545 50.553L73.8788 50.6133Z" fill="#E94445"/>
<path d="M3.48843 83.2824C2.92854 83.5077 2.45576 83.9009 2.14862 84.3965C1.8441 84.8942 1.72137 85.4627 1.80021 86.0103C1.88572 86.5583 2.17129 87.0502 2.60952 87.4045C3.02757 87.7599 3.57115 87.9646 4.152 87.9855C3.73573 88.4039 3.47506 88.9334 3.41278 89.4871C3.35117 90.0419 3.489 90.588 3.80429 91.0385C4.11947 91.4917 4.60012 91.8183 5.1645 91.963C5.7413 92.1133 6.36862 92.0705 6.94198 91.8418C7.21672 91.7289 7.47121 91.5729 7.6939 91.381C7.9429 91.1707 8.1521 90.9225 8.31143 90.6482C8.38049 90.5343 8.43549 90.4139 8.47529 90.2897L10.8016 85.3812L10.7391 85.2265L5.46802 83.2034C5.15537 83.0861 4.81758 83.0276 4.47306 83.0313C4.13241 83.0439 3.79317 83.116 3.47282 83.2437L3.48843 83.2824Z" fill="#E94445"/>
<path d="M9.48843 62.2824C8.92854 62.5077 8.45576 62.9009 8.14862 63.3965C7.8441 63.8942 7.72137 64.4627 7.80021 65.0103C7.88572 65.5583 8.17129 66.0502 8.60952 66.4045C9.02757 66.7599 9.57115 66.9646 10.152 66.9855C9.73573 67.4039 9.47506 67.9334 9.41278 68.4871C9.35117 69.0419 9.489 69.588 9.80429 70.0385C10.1195 70.4917 10.6001 70.8183 11.1645 70.963C11.7413 71.1133 12.3686 71.0705 12.942 70.8418C13.2167 70.7289 13.4712 70.5729 13.6939 70.381C13.9429 70.1707 14.1521 69.9225 14.3114 69.6482C14.3805 69.5343 14.4355 69.4139 14.4753 69.2897L16.8016 64.3812L16.7391 64.2265L11.468 62.2034C11.1554 62.0861 10.8176 62.0276 10.4731 62.0313C10.1324 62.0439 9.79317 62.116 9.47282 62.2437L9.48843 62.2824Z" fill="#E94445"/>
</svg>
