<svg width="41" height="41" viewBox="0 0 41 41" fill="none" xmlns="http://www.w3.org/2000/svg">
<path d="M20.541 0.709961C23.1932 0.709961 25.7367 1.76353 27.6121 3.63889C29.4874 5.51426 30.541 8.0578 30.541 10.71C30.541 13.3621 29.4874 15.9057 27.6121 17.781C25.7367 19.6564 23.1932 20.71 20.541 20.71C17.8889 20.71 15.3453 19.6564 13.4699 17.781C11.5946 15.9057 10.541 13.3621 10.541 10.71C10.541 8.0578 11.5946 5.51426 13.4699 3.63889C15.3453 1.76353 17.8889 0.709961 20.541 0.709961ZM20.541 5.70996C19.2149 5.70996 17.9432 6.23674 17.0055 7.17443C16.0678 8.11211 15.541 9.38388 15.541 10.71C15.541 12.036 16.0678 13.3078 17.0055 14.2455C17.9432 15.1832 19.2149 15.71 20.541 15.71C21.8671 15.71 23.1389 15.1832 24.0765 14.2455C25.0142 13.3078 25.541 12.036 25.541 10.71C25.541 9.38388 25.0142 8.11211 24.0765 7.17443C23.1389 6.23674 21.8671 5.70996 20.541 5.70996ZM20.541 23.21C27.216 23.21 40.541 26.535 40.541 33.21V40.71H0.541016V33.21C0.541016 26.535 13.866 23.21 20.541 23.21ZM20.541 27.96C13.116 27.96 5.29102 31.61 5.29102 33.21V35.96H35.791V33.21C35.791 31.61 27.966 27.96 20.541 27.96Z" fill="#DF6761"/>
</svg>
