<svg width="28" height="43" viewBox="0 0 28 43" fill="none" xmlns="http://www.w3.org/2000/svg">
<path d="M1.40234 3.35742C1.40234 3.08398 1.40234 2.83984 1.40234 2.625C1.42188 2.41016 1.44141 2.21484 1.46094 2.03906C2.125 1.70703 3.12109 1.39453 4.44922 1.10156C5.77734 0.808594 7.18359 0.574219 8.66797 0.398438C10.1719 0.203125 11.5 0.105469 12.6523 0.105469C14.3906 0.105469 15.9727 0.271484 17.3984 0.603516C18.8438 0.916016 20.25 1.44336 21.6172 2.18555C22.9844 2.92773 24.0488 4.03125 24.8105 5.49609C25.5918 6.96094 25.9824 8.60156 25.9824 10.418C25.9824 12.2344 25.4453 13.9336 24.3711 15.5156C23.2969 17.0977 22.0176 18.2891 20.5332 19.0898V19.6172C25.2598 21.2969 27.623 24.4023 27.623 28.9336C27.623 31.9609 26.8906 34.4805 25.4258 36.4922C23.9805 38.4844 21.959 39.9785 19.3613 40.9746C16.7832 41.9707 13.7949 42.4688 10.3965 42.4688C9.3418 42.4688 8.16992 42.3613 6.88086 42.1465C5.61133 41.9316 4.40039 41.6582 3.24805 41.3262C2.0957 40.9746 1.1582 40.623 0.435547 40.2715L1.8125 35.0859C4.44922 36.1016 6.98828 36.6094 9.42969 36.6094C15.3086 36.6094 18.248 34.4902 18.248 30.252C18.248 25.4473 15.9141 23.0449 11.2461 23.0449C10.2891 23.0449 9.36133 23.0645 8.46289 23.1035C7.58398 23.1426 6.72461 23.2012 5.88477 23.2793L5.35742 18.2402L10.6895 17.7715C15.2207 17.3418 17.4863 15.1543 17.4863 11.209C17.4863 9.17773 16.998 7.70312 16.0215 6.78516C15.0645 5.86719 13.6289 5.4082 11.7148 5.4082C11.0117 5.4082 10.2891 5.4668 9.54688 5.58398C9.27344 7.81055 8.77539 9.49023 8.05273 10.623L2.7207 10.3301C1.8418 8.92383 1.40234 6.59961 1.40234 3.35742Z" fill="#F8ED9B"/>
</svg>
