<svg width="59" height="59" viewBox="0 0 59 59" fill="none" xmlns="http://www.w3.org/2000/svg">
<path d="M37.1545 29.4301L40.9493 25.638L29.5704 14.259L18.1914 25.638L21.9835 29.4301L26.8885 24.5277V44.7406H32.2522V24.5277L37.1545 29.4301Z" fill="#434343"/>
<path fill-rule="evenodd" clip-rule="evenodd" d="M0 48.2727C0 51.1178 1.13019 53.8463 3.14195 55.8581C5.1537 57.8698 7.88222 59 10.7273 59H48.2727C51.1178 59 53.8463 57.8698 55.8581 55.8581C57.8698 53.8463 59 51.1178 59 48.2727V10.7273C59 7.88222 57.8698 5.1537 55.8581 3.14195C53.8463 1.13019 51.1178 0 48.2727 0H10.7273C7.88222 0 5.1537 1.13019 3.14195 3.14195C1.13019 5.1537 0 7.88222 0 10.7273V48.2727ZM10.7273 53.6364H48.2727C49.6953 53.6364 51.0595 53.0713 52.0654 52.0654C53.0713 51.0595 53.6364 49.6953 53.6364 48.2727V10.7273C53.6364 9.30475 53.0713 7.94049 52.0654 6.93461C51.0595 5.92873 49.6953 5.36364 48.2727 5.36364H10.7273C9.30475 5.36364 7.94049 5.92873 6.93461 6.93461C5.92873 7.94049 5.36364 9.30475 5.36364 10.7273V48.2727C5.36364 49.6953 5.92873 51.0595 6.93461 52.0654C7.94049 53.0713 9.30475 53.6364 10.7273 53.6364Z" fill="#434343"/>
</svg>
