<svg width="25" height="26" viewBox="0 0 25 26" fill="none" xmlns="http://www.w3.org/2000/svg">
<path d="M17.7081 2.40737C19.0883 2.41149 20.4108 2.96158 21.3867 3.93751C22.3626 4.91344 22.9127 6.2359 22.9169 7.61607V18.0324C22.9127 19.4125 22.3626 20.735 21.3867 21.7109C20.4108 22.6869 19.0883 23.2369 17.7081 23.2411H7.29185C5.91169 23.2369 4.58922 22.6869 3.61329 21.7109C2.63737 20.735 2.08727 19.4125 2.08315 18.0324V7.61607C2.08727 6.2359 2.63737 4.91344 3.61329 3.93751C4.58922 2.96158 5.91169 2.41149 7.29185 2.40737H17.7081ZM17.7081 0.324219H7.29185C3.28125 0.324219 0 3.60547 0 7.61607V18.0324C0 22.043 3.28125 25.3242 7.29185 25.3242H17.7081C21.7188 25.3242 25 22.043 25 18.0324V7.61607C25 3.60547 21.7188 0.324219 17.7081 0.324219Z" fill="white"/>
<path d="M19.0051 7.20248C18.7023 7.20248 18.4064 7.10938 18.1547 6.93496C17.903 6.76055 17.7068 6.51264 17.591 6.2226C17.4751 5.93255 17.4448 5.61339 17.5039 5.30548C17.5629 4.99757 17.7087 4.71474 17.9228 4.49275C18.1368 4.27076 18.4096 4.11958 18.7065 4.05833C19.0034 3.99709 19.3111 4.02852 19.5908 4.14866C19.8705 4.2688 20.1096 4.47225 20.2778 4.73329C20.4459 4.99432 20.5357 5.30121 20.5357 5.61515C20.5361 5.82373 20.4968 6.03034 20.4201 6.22313C20.3433 6.41591 20.2306 6.59107 20.0884 6.73856C19.9461 6.88605 19.7772 7.00295 19.5913 7.08256C19.4054 7.16217 19.2062 7.20292 19.0051 7.20248ZM12.3725 8.26031C13.1798 8.26031 13.969 8.50858 14.6403 8.97371C15.3115 9.43884 15.8347 10.1 16.1437 10.8734C16.4526 11.6469 16.5335 12.4981 16.376 13.3192C16.2185 14.1403 15.8297 14.8946 15.2588 15.4866C14.688 16.0786 13.9607 16.4817 13.1689 16.6451C12.3771 16.8084 11.5563 16.7246 10.8105 16.4042C10.0646 16.0838 9.4271 15.5412 8.97858 14.8451C8.53006 14.149 8.29066 13.3306 8.29066 12.4934C8.29182 11.3711 8.72224 10.2951 9.48749 9.50147C10.2527 8.70788 11.2903 8.26151 12.3725 8.26031ZM12.3725 6.14407C11.1616 6.14407 9.97788 6.51645 8.97103 7.21412C7.96419 7.91179 7.17945 8.90341 6.71605 10.0636C6.25265 11.2238 6.13141 12.5004 6.36765 13.732C6.60388 14.9637 7.187 16.095 8.04325 16.983C8.8995 17.8709 9.99043 18.4757 11.1781 18.7206C12.3657 18.9656 13.5968 18.8399 14.7155 18.3593C15.8343 17.8788 16.7905 17.065 17.4632 16.0208C18.136 14.9767 18.4951 13.7491 18.4951 12.4934C18.4951 10.8094 17.85 9.19446 16.7018 8.00373C15.5536 6.81301 13.9963 6.14407 12.3725 6.14407Z" fill="white"/>
</svg>
