<svg width="30" height="24" viewBox="0 0 30 24" fill="none" xmlns="http://www.w3.org/2000/svg">
<path fill-rule="evenodd" clip-rule="evenodd" d="M28.0312 3.9075L16.1944 13.71C15.858 13.9887 15.4349 14.1412 14.9981 14.1412C14.5613 14.1412 14.1382 13.9887 13.8019 13.71L1.97063 3.9075C1.90711 4.09858 1.87482 4.29864 1.875 4.5V19.5C1.875 19.9973 2.07254 20.4742 2.42417 20.8258C2.77581 21.1775 3.25272 21.375 3.75 21.375H26.25C26.7473 21.375 27.2242 21.1775 27.5758 20.8258C27.9275 20.4742 28.125 19.9973 28.125 19.5V4.5C28.1258 4.29875 28.0941 4.09868 28.0312 3.9075ZM3.75 0.75H26.25C27.2446 0.75 28.1984 1.14509 28.9016 1.84835C29.6049 2.55161 30 3.50544 30 4.5V19.5C30 20.4946 29.6049 21.4484 28.9016 22.1516C28.1984 22.8549 27.2446 23.25 26.25 23.25H3.75C2.75544 23.25 1.80161 22.8549 1.09835 22.1516C0.395088 21.4484 0 20.4946 0 19.5V4.5C0 3.50544 0.395088 2.55161 1.09835 1.84835C1.80161 1.14509 2.75544 0.75 3.75 0.75ZM3.35625 2.625L13.8113 11.2556C14.1461 11.5322 14.5666 11.684 15.0009 11.685C15.4352 11.686 15.8563 11.5362 16.1925 11.2612L26.7525 2.625H3.35625Z" fill="#808180"/>
</svg>
