<svg width="872" height="770" viewBox="0 0 872 770" fill="none" xmlns="http://www.w3.org/2000/svg">
<g clip-path="url(#clip0_1062_5661)">
<path d="M866.2 365.2C831.047 291.14 789.213 230.74 740.7 184L689.82 234.88C731.31 274.53 767.45 326.4 798.7 391C715.5 563.2 597.4 645 436 645C387.553 645 342.93 637.54 302.13 622.62L247 677.75C303.667 703.917 366.667 717 436 717C628.2 717 771.6 616.9 866.2 416.7C870.003 408.649 871.976 399.855 871.976 390.95C871.976 382.045 870.003 373.252 866.2 365.2ZM802.63 44.56L760 1.87998C759.257 1.13617 758.375 0.546103 757.403 0.143509C756.432 -0.259085 755.391 -0.466309 754.34 -0.466309C753.289 -0.466309 752.248 -0.259085 751.276 0.143509C750.305 0.546103 749.423 1.13617 748.68 1.87998L639.31 111.2C579.01 80.4 511.24 65 436 65C243.8 65 100.4 165.1 5.79992 365.3C1.99746 373.352 0.0253906 382.146 0.0253906 391.05C0.0253906 399.954 1.99746 408.748 5.79992 416.8C43.5933 496.4 89.0933 560.203 142.3 608.21L36.4799 714C34.9808 715.5 34.1386 717.534 34.1386 719.655C34.1386 721.776 34.9808 723.81 36.4799 725.31L79.1699 768C80.6701 769.499 82.7041 770.341 84.8249 770.341C86.9457 770.341 88.9798 769.499 90.4799 768L802.63 55.88C803.374 55.137 803.964 54.2547 804.366 53.2835C804.769 52.3123 804.976 51.2713 804.976 50.22C804.976 49.1687 804.769 48.1276 804.366 47.1565C803.964 46.1853 803.374 45.303 802.63 44.56ZM73.2999 391C156.6 218.8 274.7 137 436 137C490.54 137 540.13 146.36 585.12 165.39L514.82 235.69C481.527 217.926 443.406 211.334 406.08 216.885C368.755 222.435 334.202 239.836 307.519 266.519C280.836 293.202 263.435 327.755 257.884 365.081C252.334 402.406 258.926 440.527 276.69 473.82L193.27 557.24C147.1 516.49 107.3 461.28 73.2999 391ZM320 391C320.017 373.366 324.194 355.986 332.191 340.27C340.188 324.554 351.779 310.946 366.023 300.551C380.267 290.156 396.762 283.268 414.169 280.446C431.575 277.624 449.401 278.948 466.2 284.31L325.31 425.2C321.779 414.144 319.987 402.606 320 391Z" fill="#5b5b5b"/>
<path d="M432 503C428.54 503 425.13 502.84 421.75 502.53L368.93 555.35C400.699 567.516 435.312 570.22 468.585 563.134C501.858 556.048 532.366 539.476 556.421 515.421C580.476 491.366 597.048 460.858 604.134 427.585C611.22 394.312 608.516 359.699 596.35 327.93L543.53 380.75C543.84 384.13 544 387.54 544 391C544.008 405.71 541.116 420.278 535.49 433.87C529.865 447.462 521.615 459.812 511.213 470.214C500.812 480.615 488.462 488.865 474.87 494.491C461.278 500.116 446.71 503.008 432 503Z" fill="#5b5b5b"/>
</g>
<defs>
<clipPath id="clip0_1062_5661">
<rect width="872" height="770" fill="white"/>
</clipPath>
</defs>
</svg>
