<svg width="14" height="18" viewBox="0 0 14 18" fill="none" xmlns="http://www.w3.org/2000/svg">
<path d="M6.99922 18C6.99922 18 0.699219 9.783 0.699219 6.3C0.699219 5.47267 0.862173 4.65345 1.17878 3.88909C1.49538 3.12474 1.95944 2.43024 2.54445 1.84523C3.12945 1.26022 3.82396 0.796164 4.58831 0.479559C5.35266 0.162954 6.17189 0 6.99922 0C7.82655 0 8.64577 0.162954 9.41012 0.479559C10.1745 0.796164 10.869 1.26022 11.454 1.84523C12.039 2.43024 12.5031 3.12474 12.8197 3.88909C13.1363 4.65345 13.2992 5.47267 13.2992 6.3C13.2992 9.783 6.99922 18 6.99922 18ZM6.99922 8.1C7.47661 8.1 7.93444 7.91036 8.27201 7.57279C8.60958 7.23523 8.79922 6.77739 8.79922 6.3C8.79922 5.82261 8.60958 5.36477 8.27201 5.02721C7.93444 4.68964 7.47661 4.5 6.99922 4.5C6.52183 4.5 6.06399 4.68964 5.72643 5.02721C5.38886 5.36477 5.19922 5.82261 5.19922 6.3C5.19922 6.77739 5.38886 7.23523 5.72643 7.57279C6.06399 7.91036 6.52183 8.1 6.99922 8.1Z" fill="#E94445"/>
</svg>
