<svg width="25" height="26" viewBox="0 0 25 26" fill="none" xmlns="http://www.w3.org/2000/svg">
<path d="M21.7962 6.94922C18.5306 1.88672 11.8431 0.386724 6.67122 3.52735C1.62435 6.66797 -0.000654286 13.5117 3.26497 18.5586L3.5306 18.9648L2.43685 23.0586L6.53059 21.9648L6.93684 22.2305C8.70247 23.1836 10.6243 23.7305 12.5306 23.7305C14.5775 23.7305 16.6243 23.1836 18.39 22.0898C23.4368 18.8086 24.9368 12.1055 21.7962 6.91797V6.94922ZM18.9368 17.4805C18.39 18.293 17.7025 18.8398 16.7493 18.9805C16.2025 18.9805 15.515 19.2461 12.7962 18.168C10.4837 17.0742 8.56184 15.293 7.20247 13.2461C6.38997 12.293 5.9681 11.0586 5.8431 9.82422C5.8431 8.73047 6.24935 7.77735 6.93684 7.08985C7.20247 6.82422 7.48372 6.6836 7.74934 6.6836H8.43684C8.70247 6.6836 8.98372 6.6836 9.12434 7.23047C9.38997 7.91797 10.0775 9.5586 10.0775 9.69922C10.2181 9.83985 10.1556 10.8867 9.53059 11.4805C9.18684 11.8711 9.12434 11.8867 9.26497 12.168C9.81184 12.9805 10.4993 13.8086 11.1712 14.4961C11.9837 15.1836 12.8118 15.7305 13.765 16.1367C14.0306 16.2773 14.3118 16.2773 14.4525 15.9961C14.5931 15.7305 15.265 15.043 15.5462 14.7617C15.8118 14.4961 15.9525 14.4961 16.2337 14.6211L18.4212 15.7148C18.6868 15.8555 18.9681 15.9805 19.1087 16.1211C19.2493 16.5273 19.2493 17.0742 18.9681 17.4805H18.9368Z" fill="white"/>
</svg>
