<svg width="25" height="26" viewBox="0 0 25 26" fill="none" xmlns="http://www.w3.org/2000/svg">
<path fill-rule="evenodd" clip-rule="evenodd" d="M12.415 25.0789C5.55832 25.0789 -0.000110626 19.5119 -0.000110626 12.6447C-0.000110626 5.77743 5.55832 0.210449 12.415 0.210449C19.2717 0.210449 24.8301 5.77743 24.8301 12.6447C24.8301 19.5119 19.2717 25.0789 12.415 25.0789ZM15.2603 8.13111C15.2102 8.01224 15.1368 7.90426 15.0443 7.81336C14.655 7.43015 14.0162 7.43015 13.6369 7.80354L9.05537 12.3136C8.96284 12.4045 8.88942 12.5125 8.83934 12.6314C8.78925 12.7502 8.76347 12.8777 8.76347 13.0063C8.76347 13.135 8.78925 13.2625 8.83934 13.3813C8.88942 13.5002 8.96284 13.6082 9.05537 13.6991L13.6369 18.2091C13.8235 18.3929 14.0766 18.4961 14.3406 18.4961C14.6045 18.4961 14.8576 18.3929 15.0443 18.2091C15.2309 18.0254 15.3357 17.7762 15.3357 17.5164C15.3357 17.2566 15.2309 17.0074 15.0443 16.8237L11.1714 13.0113L15.0443 9.19881C15.1368 9.10791 15.2102 8.99993 15.2603 8.88107C15.3104 8.7622 15.3362 8.63477 15.3362 8.50609C15.3362 8.3774 15.3104 8.24997 15.2603 8.13111Z" fill="#585C5F"/>
</svg>
