<svg width="25" height="26" viewBox="0 0 25 26" fill="none" xmlns="http://www.w3.org/2000/svg">
<path d="M19.8342 4.24089C18.7443 3.15703 18.1437 1.7651 18.1441 0.324219H13.2175V17.5464C13.1795 18.4784 12.7278 19.3612 11.9575 20.0089C11.1873 20.6565 10.1586 21.0185 9.08801 21.0187C6.82398 21.0187 4.9426 19.4076 4.9426 17.4076C4.9426 15.0187 7.58929 13.227 10.3157 13.9631V9.57422C4.81505 8.93533 0 12.6576 0 17.4076C0 22.0326 4.40051 25.3242 9.07207 25.3242C14.0784 25.3242 18.1441 21.7826 18.1441 17.4076V8.67144C20.1419 9.92123 22.5404 10.5918 25 10.5881V6.29644C25 6.29644 22.0026 6.42144 19.8342 4.24089Z" fill="white"/>
</svg>
