<svg width="44" height="59" viewBox="0 0 44 59" fill="none" xmlns="http://www.w3.org/2000/svg">
<path d="M29.1084 9.31152L37.6367 10.1924V35.8574H43.6826V44.0654H37.6367V49.751C39.7988 50.5785 41.2936 51.4993 42.1211 52.5137L41.3203 59H20.5L19.6592 52.5137C20.7269 51.2591 22.9424 50.1914 26.3057 49.3105V44.0654H2.60254L0.480469 37.5791L17.9375 0.462891L26.3057 4.06641L15.7354 28.9707C14.641 31.5065 13.4398 33.5352 12.1318 35.0566L11.3711 35.9775L11.8115 36.8584C13.6266 36.1911 15.9756 35.8574 18.8584 35.8574H26.3057V24.166C26.3057 17.1992 27.2399 12.2477 29.1084 9.31152Z" fill="#F8ED9B"/>
</svg>
