<svg width="34" height="30" viewBox="0 0 34 30" fill="none" xmlns="http://www.w3.org/2000/svg">
<path d="M31.5835 12.9167H6.87516L14.4377 3.83334C14.7913 3.40789 14.9614 2.85938 14.9106 2.3085C14.8598 1.75761 14.5923 1.24946 14.1668 0.895838C13.7414 0.542216 13.1929 0.372087 12.642 0.422878C12.0911 0.473669 11.583 0.74122 11.2293 1.16667L0.812663 13.6667C0.742581 13.7661 0.679911 13.8705 0.625162 13.9792C0.625162 14.0833 0.625163 14.1458 0.47933 14.25C0.3849 14.4889 0.335457 14.7432 0.333496 15C0.335457 15.2569 0.3849 15.5111 0.47933 15.75C0.47933 15.8542 0.479329 15.9167 0.625162 16.0208C0.679911 16.1295 0.742581 16.2339 0.812663 16.3333L11.2293 28.8333C11.4252 29.0685 11.6705 29.2576 11.9478 29.3873C12.225 29.5169 12.5274 29.5838 12.8335 29.5833C13.3203 29.5843 13.792 29.4148 14.1668 29.1042C14.3778 28.9293 14.5522 28.7145 14.68 28.4721C14.8078 28.2297 14.8865 27.9645 14.9117 27.6916C14.9369 27.4187 14.9079 27.1436 14.8266 26.8819C14.7452 26.6202 14.6131 26.3772 14.4377 26.1667L6.87516 17.0833H31.5835C32.136 17.0833 32.6659 16.8638 33.0566 16.4731C33.4473 16.0824 33.6668 15.5525 33.6668 15C33.6668 14.4475 33.4473 13.9176 33.0566 13.5269C32.6659 13.1362 32.136 12.9167 31.5835 12.9167Z" fill="black"/>
</svg>
