<svg width="25" height="26" viewBox="0 0 25 26" fill="none" xmlns="http://www.w3.org/2000/svg">
<path d="M23.0005 0.324219H2.13616C0.996092 0.324219 0 1.14453 0 2.27121V23.1819C0 24.3147 0.996092 25.3242 2.13616 25.3242H22.9944C24.1406 25.3242 25 24.308 25 23.1819V2.27121C25.0067 1.14453 24.1406 0.324219 23.0005 0.324219ZM7.74943 21.1629H4.16796V10.0273H7.74943V21.1629ZM6.08258 8.33426H6.05691C4.91071 8.33426 4.16852 7.48103 4.16852 6.41295C4.16852 5.32534 4.93024 4.49219 6.10211 4.49219C7.27398 4.49219 7.99106 5.3192 8.01673 6.41295C8.01617 7.48103 7.27398 8.33426 6.08258 8.33426ZM20.8387 21.1629H17.2572V15.0742C17.2572 13.6155 16.736 12.6189 15.4403 12.6189C14.4503 12.6189 13.8644 13.2885 13.6038 13.9408C13.5061 14.1752 13.4799 14.4944 13.4799 14.8203V21.1629H9.89842V10.0273H13.4799V11.577C14.0011 10.8348 14.8153 9.76674 16.7098 9.76674C19.0608 9.76674 20.8393 11.3164 20.8393 14.6574L20.8387 21.1629Z" fill="white"/>
</svg>
