<svg width="20" height="18" viewBox="0 0 20 18" fill="none" xmlns="http://www.w3.org/2000/svg">
<path d="M14.3103 0C12.5784 0 11.0414 0.692166 10 1.88185C8.95862 0.692166 7.42155 0 5.68966 0C4.18123 0.0018479 2.7351 0.609378 1.66848 1.68933C0.601855 2.76929 0.00182508 4.23349 0 5.76078C0 12.0749 9.12155 17.12 9.50948 17.3321C9.66023 17.4143 9.82878 17.4573 10 17.4573C10.1712 17.4573 10.3398 17.4143 10.4905 17.3321C10.8784 17.12 20 12.0749 20 5.76078C19.9982 4.23349 19.3981 2.76929 18.3315 1.68933C17.2649 0.609378 15.8188 0.0018479 14.3103 0ZM13.8371 12.4258C12.6364 13.4574 11.353 14.3858 10 15.2015C8.64703 14.3858 7.36356 13.4574 6.16293 12.4258C4.29483 10.8032 2.06897 8.32869 2.06897 5.76078C2.06897 4.78851 2.45043 3.85606 3.12944 3.16856C3.80845 2.48106 4.72939 2.09483 5.68966 2.09483C7.22414 2.09483 8.50862 2.9153 9.04224 4.23679C9.11991 4.42943 9.25249 4.59429 9.42306 4.71033C9.59364 4.82638 9.79449 4.88835 10 4.88835C10.2055 4.88835 10.4064 4.82638 10.5769 4.71033C10.7475 4.59429 10.8801 4.42943 10.9578 4.23679C11.4914 2.9153 12.7759 2.09483 14.3103 2.09483C15.2706 2.09483 16.1915 2.48106 16.8706 3.16856C17.5496 3.85606 17.931 4.78851 17.931 5.76078C17.931 8.32869 15.7052 10.8032 13.8371 12.4258Z" fill="black"/>
</svg>
