<svg width="28" height="28" viewBox="0 0 28 28" fill="none" xmlns="http://www.w3.org/2000/svg">
<path d="M25.1562 6.94996C21.2375 0.874957 13.2125 -0.925043 7.00625 2.84371C0.950002 6.61246 -0.999998 14.825 2.91875 20.8812L3.2375 21.3687L1.925 26.2812L6.8375 24.9687L7.325 25.2875C9.44375 26.4312 11.75 27.0875 14.0375 27.0875C16.4938 27.0875 18.95 26.4312 21.0688 25.1187C27.125 21.1812 28.925 13.1375 25.1562 6.91246V6.94996ZM21.725 19.5875C21.0687 20.5625 20.2437 21.2187 19.1 21.3875C18.4438 21.3875 17.6187 21.7062 14.3562 20.4125C11.5813 19.1 9.275 16.9625 7.64375 14.5062C6.66875 13.3625 6.1625 11.8812 6.0125 10.4C6.0125 9.08746 6.5 7.94371 7.325 7.11871C7.64375 6.79996 7.98125 6.63121 8.3 6.63121H9.125C9.44375 6.63121 9.78125 6.63121 9.95 7.28746C10.2688 8.11246 11.0938 10.0812 11.0938 10.25C11.2625 10.4187 11.1875 11.675 10.4375 12.3875C10.025 12.8562 9.95 12.875 10.1188 13.2125C10.775 14.1875 11.6 15.1812 12.4063 16.0062C13.3813 16.8312 14.375 17.4875 15.5188 17.975C15.8375 18.1437 16.175 18.1437 16.3438 17.8062C16.5125 17.4875 17.3188 16.6625 17.6562 16.325C17.975 16.0062 18.1438 16.0062 18.4813 16.1562L21.1062 17.4687C21.425 17.6375 21.7625 17.7875 21.9312 17.9562C22.1 18.4437 22.1 19.1 21.7625 19.5875H21.725Z" fill="#808180"/>
</svg>
