<svg width="25" height="25" viewBox="0 0 25 25" fill="none" xmlns="http://www.w3.org/2000/svg">
<path fill-rule="evenodd" clip-rule="evenodd" d="M12.9393 24.3683C19.6 24.3683 24.9997 18.9604 24.9997 12.2894C24.9997 5.61838 19.6 0.210449 12.9393 0.210449C6.27852 0.210449 0.878906 5.61838 0.878906 12.2894C0.878906 18.9604 6.27852 24.3683 12.9393 24.3683ZM10.1753 7.90478C10.2239 7.78931 10.2952 7.68442 10.3851 7.59611C10.7633 7.22385 11.3838 7.22385 11.7523 7.58657L16.2029 11.9678C16.2928 12.0561 16.3641 12.161 16.4128 12.2765C16.4614 12.3919 16.4865 12.5157 16.4865 12.6407C16.4865 12.7657 16.4614 12.8895 16.4128 13.005C16.3641 13.1205 16.2928 13.2253 16.2029 13.3137L11.7523 17.6949C11.571 17.8733 11.3251 17.9736 11.0687 17.9736C10.8123 17.9736 10.5664 17.8733 10.3851 17.6949C10.2038 17.5164 10.102 17.2743 10.102 17.0219C10.102 16.7695 10.2038 16.5275 10.3851 16.349L14.1473 12.6455L10.3851 8.94198C10.2952 8.85367 10.2239 8.74878 10.1753 8.63331C10.1266 8.51784 10.1016 8.39406 10.1016 8.26905C10.1016 8.14403 10.1266 8.02025 10.1753 7.90478Z" fill="#585C5F"/>
</svg>
