<svg width="19" height="19" viewBox="0 0 19 19" fill="none" xmlns="http://www.w3.org/2000/svg">
<path d="M2.60156 18.5C2.05156 18.5 1.5809 18.3043 1.18956 17.913C0.798229 17.5217 0.602229 17.0507 0.601562 16.5V12.5H2.60156V16.5H16.6016V2.5H2.60156V6.5H0.601562V2.5C0.601562 1.95 0.797563 1.47933 1.18956 1.088C1.58156 0.696667 2.05223 0.500667 2.60156 0.5H16.6016C17.1516 0.5 17.6226 0.696 18.0146 1.088C18.4066 1.48 18.6022 1.95067 18.6016 2.5V16.5C18.6016 17.05 18.4059 17.521 18.0146 17.913C17.6232 18.305 17.1522 18.5007 16.6016 18.5H2.60156ZM8.10156 14.5L6.70156 13.05L9.25156 10.5H0.601562V8.5H9.25156L6.70156 5.95L8.10156 4.5L13.1016 9.5L8.10156 14.5Z" fill="white"/>
</svg>
