<svg width="154" height="188" viewBox="0 0 154 188" fill="none" xmlns="http://www.w3.org/2000/svg">
<path d="M128.873 182.666C122.207 184.068 115.295 182.96 109.641 179.584C106.851 177.918 104.456 175.742 102.591 173.182C100.726 170.622 99.429 167.728 98.7737 164.665L82.8998 89.8112C82.721 88.9677 82.9089 88.0825 83.4224 87.3503C83.9359 86.6182 84.7328 86.099 85.6379 85.9071C86.5429 85.7152 87.482 85.8662 88.2484 86.3269C89.0149 86.7876 89.546 87.5203 89.7248 88.3638L105.595 163.2C106.077 165.439 107.033 167.552 108.406 169.417C109.779 171.282 111.542 172.862 113.592 174.064C117.705 176.529 122.74 177.336 127.593 176.307C132.446 175.278 136.72 172.497 139.478 168.574C140.85 166.64 141.805 164.482 142.29 162.223C142.775 159.964 142.779 157.65 142.303 155.416L121.876 59.0896L92.5314 65.1386L87.3896 76.8873C87.5685 77.7308 87.3805 78.616 86.867 79.3482C86.3535 80.0803 85.5566 80.5995 84.6515 80.7914C84.6515 82.9669 82.8998 82.9669 82.041 80.3716C83.4224 82.9669 87.5094 86.6287 83.4224 82.9669L85.6379 78.3346C93.5096 84.5185 88.0659 73.2631 89.7246 65.1386C89.8111 64.7151 92.5314 69.3816 86.867 65.1386C98.3032 61.5507 95.9678 66.564 87.3898 62.6775C98.8253 64.103 89.2782 59.1799 89.7246 59.0896L123.871 52.0562C124.318 51.9566 124.779 51.9408 125.228 52.0099C125.676 52.0789 126.103 52.2314 126.483 52.4585C126.863 52.6855 127.189 52.9825 127.441 53.3323C127.694 53.682 127.868 54.0774 127.954 54.4954L149.053 153.984C150.347 160.189 148.95 166.692 145.168 172.068C141.385 177.444 135.525 181.256 128.873 182.666Z" fill="#010101"/>
<path d="M98.8486 108.691L110.163 162.042C110.885 165.451 113.024 168.415 116.107 170.28C119.19 172.145 122.965 172.76 126.602 171.989C130.239 171.217 133.44 169.123 135.5 166.167C137.561 163.211 138.312 159.635 137.589 156.226L126.276 102.875L98.8486 108.691Z" fill="#E94445"/>
<path d="M111.545 34.7137C111.356 33.8209 110.895 33.0137 110.238 32.4262C109.577 31.8421 108.762 31.5101 107.926 31.4837C107.088 31.4672 106.28 31.7633 105.638 32.3228C104.999 32.8519 104.551 33.6076 104.368 34.467C103.854 33.7373 103.134 33.2101 102.326 32.972C101.516 32.7346 100.667 32.7965 99.9131 33.1477C99.1556 33.498 98.543 34.1279 98.1795 34.9303C97.8042 35.7497 97.7031 36.695 97.8932 37.6088C97.9892 38.0475 98.1546 38.4674 98.3819 38.8494C98.6296 39.2753 98.9443 39.652 99.3108 39.9612C99.4624 40.094 99.6272 40.2075 99.8016 40.2993L106.5 45.0519L106.746 44.9995L111.143 37.6821C111.4 37.2473 111.575 36.7597 111.66 36.2458C111.731 35.7352 111.713 35.2112 111.607 34.7006L111.545 34.7137Z" fill="#E94445"/>
<path d="M108.96 8.8096C108.771 7.91677 108.31 7.10957 107.653 6.52212C106.992 5.93802 106.177 5.60602 105.341 5.57962C104.503 5.56309 103.695 5.85915 103.053 6.41864C102.414 6.94782 101.966 7.70345 101.783 8.56285C101.269 7.83316 100.549 7.30601 99.741 7.06791C98.9311 6.83051 98.0816 6.89234 97.3281 7.24354C96.5706 7.59386 95.958 8.22379 95.5945 9.02617C95.2192 9.84557 95.1182 10.7909 95.3082 11.7046C95.4043 12.1434 95.5697 12.5633 95.797 12.9452C96.0447 13.3712 96.3594 13.7479 96.7259 14.0571C96.8775 14.1899 97.0422 14.3034 97.2167 14.3952L103.915 19.1478L104.161 19.0954L108.558 11.7779C108.815 11.3432 108.99 10.8556 109.075 10.3416C109.146 9.83108 109.128 9.30705 109.022 8.79651L108.96 8.8096Z" fill="#E94445"/>
<path d="M74.997 3.95773C74.8085 3.06491 74.3472 2.2577 73.6899 1.67025C73.0288 1.08615 72.2145 0.754148 71.3783 0.727754C70.5401 0.711225 69.7326 1.00728 69.09 1.56677C68.4511 2.09595 68.0035 2.85158 67.8199 3.71099C67.3061 2.98129 66.5862 2.45414 65.7781 2.21604C64.9682 1.97864 64.1188 2.04048 63.3652 2.39167C62.6078 2.742 61.9952 3.37193 61.6316 4.17431C61.2563 4.9937 61.1553 5.93899 61.3453 6.85277C61.4414 7.29151 61.6068 7.71141 61.8341 8.09337C62.0818 8.51934 62.3965 8.89601 62.763 9.20526C62.9146 9.33801 63.0793 9.45149 63.2538 9.54336L69.9518 14.2959L70.1986 14.2436L74.5949 6.92608C74.8517 6.49134 75.0274 6.00372 75.1124 5.48977C75.183 4.97921 75.1648 4.45518 75.0587 3.94464L74.997 3.95773Z" fill="#E94445"/>
<path d="M114.307 80.5263C114.118 79.6334 113.657 78.8262 112.999 78.2388C112.338 77.6547 111.524 77.3227 110.688 77.2963C109.85 77.2798 109.042 77.5758 108.4 78.1353C107.761 78.6645 107.313 79.4201 107.13 80.2795C106.616 79.5498 105.896 79.0227 105.088 78.7846C104.278 78.5472 103.428 78.609 102.675 78.9602C101.917 79.3105 101.305 79.9405 100.941 80.7428C100.566 81.5622 100.465 82.5075 100.655 83.4213C100.751 83.8601 100.916 84.2799 101.144 84.6619C101.391 85.0879 101.706 85.4645 102.073 85.7738C102.224 85.9066 102.389 86.02 102.563 86.1119L109.261 90.8644L109.508 90.8121L113.904 83.4946C114.161 83.0599 114.337 82.5723 114.422 82.0583C114.493 81.5478 114.474 81.0237 114.368 80.5132L114.307 80.5263Z" fill="#E94445"/>
<path d="M88.6167 52.2314C87.6764 52.3898 86.837 52.9176 86.2833 53.6988C85.7296 54.4799 85.5069 55.4505 85.6642 56.3969C86.0292 58.5909 86.2126 60.8116 86.2125 63.0362C86.221 72.779 82.6629 82.1835 76.2179 89.4533C72.2082 83.6058 66.5701 79.0819 60.0126 76.4505C63.535 73.6584 66.1054 69.831 67.3662 65.5006C68.627 61.1702 68.5156 56.5519 67.0475 52.2882C65.5794 48.0244 62.8275 44.327 59.1746 41.7102C55.5217 39.0934 51.1493 37.6872 46.6655 37.6872C42.1816 37.6872 37.8092 39.0934 34.1563 41.7102C30.5034 44.327 27.7516 48.0244 26.2834 52.2882C24.8153 56.5519 24.7039 61.1702 25.9648 65.5006C27.2256 69.831 29.7959 73.6584 33.3184 76.4505C26.7608 79.0819 21.1228 83.6058 17.1131 89.4533C12.0561 83.7183 8.75283 76.6354 7.60045 69.0561C6.44807 61.4768 7.49565 53.7238 10.6172 46.7294C13.7388 39.735 18.8015 33.797 25.1965 29.6292C31.5915 25.4615 39.0467 23.2416 46.6655 23.2364C48.8759 23.236 51.0826 23.4206 53.2626 23.7881C54.1988 23.9368 55.1554 23.7074 55.9244 23.1499C56.6933 22.5925 57.2125 21.7519 57.3689 20.8112C57.5253 19.8705 57.3062 18.9057 56.7594 18.1267C56.2126 17.3476 55.3823 16.8174 54.4491 16.6513C44.6856 14.9983 34.6528 16.5108 25.7992 20.9704C16.9456 25.43 9.72934 32.6058 5.19232 41.462C0.655292 50.3181 -0.967711 60.3962 0.557644 70.2411C2.083 80.0861 6.67778 89.1884 13.6786 96.234C20.6794 103.28 29.7239 107.904 39.5063 109.439C49.2887 110.974 59.3028 109.341 68.1027 104.774C76.9025 100.208 84.0328 92.9461 88.4641 84.0358C92.8953 75.1256 94.3982 65.0287 92.7557 55.2029C92.5983 54.2565 92.0739 53.4118 91.2977 52.8545C90.5215 52.2973 89.5571 52.0731 88.6167 52.2314ZM32.2848 59.418C32.2848 56.5556 33.1282 53.7575 34.7084 51.3774C36.2885 48.9974 38.5345 47.1424 41.1622 46.047C43.79 44.9516 46.6814 44.665 49.471 45.2234C52.2606 45.7819 54.823 47.1603 56.8342 49.1843C58.8454 51.2083 60.215 53.7871 60.7699 56.5945C61.3248 59.402 61.04 62.3119 59.9515 64.9565C58.8631 67.601 57.0199 69.8613 54.655 71.4516C52.2901 73.0419 49.5097 73.8907 46.6655 73.8907C42.8515 73.8907 39.1937 72.3659 36.4968 69.6517C33.7999 66.9376 32.2848 63.2564 32.2848 59.418ZM22.434 94.469C25.0348 90.3754 28.6177 87.0066 32.8524 84.6731C37.0872 82.3395 41.8375 81.1164 46.6655 81.1164C51.4935 81.1164 56.2438 82.3395 60.4785 84.6731C64.7133 87.0066 68.2962 90.3754 70.897 94.469C63.9688 99.8916 55.4423 102.836 46.6655 102.836C37.8886 102.836 29.3622 99.8916 22.434 94.469ZM95.9464 25.7962L81.5657 40.2689C81.2318 40.6053 80.8353 40.8722 80.3988 41.0542C79.9624 41.2363 79.4946 41.33 79.0221 41.33C78.5496 41.33 78.0818 41.2363 77.6454 41.0542C77.2089 40.8722 76.8124 40.6053 76.4785 40.2689L69.2881 33.0326C68.9541 32.6964 68.6892 32.2973 68.5084 31.8581C68.3276 31.4189 68.2346 30.9481 68.2346 30.4727C68.2346 29.9973 68.3276 29.5265 68.5084 29.0873C68.6892 28.6481 68.9541 28.249 69.2881 27.9129C69.9627 27.2339 70.8777 26.8525 71.8317 26.8525C72.3041 26.8525 72.7719 26.9462 73.2083 27.1281C73.6448 27.31 74.0413 27.5767 74.3753 27.9129L79.0221 32.5939L90.8592 20.6765C91.1933 20.3404 91.5898 20.0737 92.0262 19.8918C92.4627 19.7098 92.9304 19.6162 93.4028 19.6162C93.8752 19.6162 94.343 19.7098 94.7794 19.8918C95.2158 20.0737 95.6124 20.3404 95.9464 20.6765C96.2804 21.0127 96.5454 21.4118 96.7262 21.851C96.907 22.2902 97 22.761 97 23.2364C97 23.7118 96.907 24.1825 96.7262 24.6218C96.5454 25.061 96.2804 25.4601 95.9464 25.7962Z" fill="black"/>
</svg>
