<svg width="85" height="178" viewBox="0 0 85 178" fill="none" xmlns="http://www.w3.org/2000/svg">
<path d="M58.4516 172.243C51.5819 173.688 44.4591 172.546 38.6322 169.067C35.7576 167.35 33.2888 165.108 31.3672 162.47C29.4455 159.832 28.1088 156.849 27.4334 153.693L11.0749 76.5531C10.8906 75.6839 11.0843 74.7716 11.6134 74.0171C12.1426 73.2626 12.9639 72.7276 13.8965 72.5298C14.8292 72.332 15.7969 72.4877 16.5868 72.9625C17.3766 73.4373 17.9239 74.1923 18.1083 75.0616L34.4629 152.183C34.9602 154.49 35.9449 156.667 37.3599 158.589C38.7748 160.511 40.5916 162.139 42.7046 163.378C46.943 165.919 52.1319 166.75 57.1329 165.69C62.1339 164.629 66.5386 161.763 69.3809 157.721C70.7939 155.728 71.7788 153.503 72.2784 151.176C72.7781 148.848 72.7826 146.464 72.2917 144.161L51.2407 44.8936L13.5091 52.8951L15.7017 63.2347C15.8861 64.1039 15.6923 65.0161 15.1632 65.7707C14.634 66.5252 13.8128 67.0602 12.8801 67.2579C11.9474 67.4557 10.9797 67.3001 10.1898 66.8253C9.39998 66.3505 8.85269 65.5954 8.66835 64.7262L5.78449 51.1272C5.69555 50.6977 5.69794 50.2536 5.79154 49.8201C5.88063 49.3837 6.06122 48.9658 6.32271 48.591C6.59379 48.2232 6.93125 47.9017 7.31928 47.6417C7.71136 47.3917 8.14994 47.2151 8.60998 47.122L53.2972 37.6455C53.7578 37.5428 54.233 37.5265 54.695 37.5977C55.1571 37.6688 55.5968 37.826 55.9885 38.06C56.3801 38.2939 56.7159 38.6 56.9763 38.9604C57.2367 39.3208 57.4165 39.7283 57.5051 40.1591L79.2473 142.686C80.5817 149.079 79.142 155.781 75.2438 161.321C71.3456 166.862 65.307 170.79 58.4516 172.243Z" fill="#010101"/>
<path d="M27.5107 96.0093L39.1701 150.989C39.9151 154.503 42.1186 157.556 45.2957 159.479C48.4728 161.401 52.3633 162.034 56.1114 161.239C59.8595 160.445 63.1581 158.287 65.2815 155.24C67.405 152.194 68.1794 148.509 67.4343 144.996L55.775 90.0154L27.5107 96.0093Z" fill="#E94445"/>
<path d="M40.5947 19.7738C40.4004 18.8537 39.925 18.0218 39.2476 17.4165C38.5663 16.8145 37.7272 16.4724 36.8655 16.4452C36.0016 16.4281 35.1695 16.7332 34.5073 17.3098C33.8489 17.8552 33.3876 18.6339 33.1984 19.5195C32.6689 18.7675 31.927 18.2243 31.0943 17.9789C30.2596 17.7343 29.3843 17.798 28.6077 18.1599C27.8271 18.5209 27.1958 19.1701 26.8212 19.997C26.4344 20.8414 26.3303 21.8155 26.5261 22.7572C26.6251 23.2093 26.7956 23.6421 27.0298 24.0357C27.2851 24.4747 27.6094 24.8628 27.9871 25.1815C28.1433 25.3183 28.3131 25.4353 28.4929 25.5299L35.3954 30.4276L35.6497 30.3736L40.1802 22.8327C40.4449 22.3847 40.6259 21.8822 40.7135 21.3526C40.7863 20.8264 40.7675 20.2864 40.6583 19.7603L40.5947 19.7738Z" fill="#E94445"/>
<path d="M14.9306 4.07846C14.7363 3.15838 14.261 2.32653 13.5835 1.72114C12.9022 1.11921 12.0631 0.777067 11.2014 0.749867C10.3375 0.732834 9.50541 1.03793 8.84321 1.6145C8.18479 2.15984 7.72355 2.93854 7.53437 3.82418C7.00488 3.07221 6.26292 2.52897 5.43023 2.28359C4.59558 2.03895 3.72019 2.10267 2.94366 2.46459C2.16305 2.82561 1.53175 3.47477 1.15712 4.30165C0.770378 5.14606 0.666242 6.12021 0.862055 7.06189C0.961053 7.51403 1.13153 7.94674 1.36573 8.34037C1.62102 8.77934 1.94532 9.16751 2.32302 9.4862C2.47924 9.62301 2.649 9.73995 2.82881 9.83463L9.73131 14.7323L9.98565 14.6783L14.5162 7.13743C14.7808 6.68943 14.9619 6.18692 15.0495 5.65728C15.1222 5.13113 15.1035 4.5911 14.9942 4.06497L14.9306 4.07846Z" fill="#E94445"/>
<path d="M43.4404 66.985C43.2461 66.0649 42.7707 65.233 42.0933 64.6276C41.412 64.0257 40.5729 63.6836 39.7112 63.6564C38.8473 63.6393 38.0152 63.9444 37.353 64.521C36.6946 65.0663 36.2333 65.845 36.0441 66.7307C35.5146 65.9787 34.7727 65.4355 33.94 65.1901C33.1053 64.9454 32.23 65.0092 31.4534 65.3711C30.6728 65.7321 30.0415 66.3813 29.6669 67.2081C29.2801 68.0526 29.176 69.0267 29.3718 69.9684C29.4708 70.4205 29.6413 70.8532 29.8755 71.2469C30.1308 71.6858 30.4551 72.074 30.8328 72.3927C30.989 72.5295 31.1588 72.6464 31.3386 72.7411L38.2411 77.6388L38.4954 77.5848L43.0259 70.0439C43.2906 69.5959 43.4716 69.0934 43.5592 68.5638C43.632 68.0376 43.6132 67.4976 43.504 66.9715L43.4404 66.985Z" fill="#E94445"/>
</svg>
