<svg width="19" height="19" viewBox="0 0 19 19" fill="none" xmlns="http://www.w3.org/2000/svg">
<path d="M9.60156 0.5C10.795 0.5 11.9396 0.974106 12.7835 1.81802C13.6275 2.66193 14.1016 3.80653 14.1016 5C14.1016 6.19347 13.6275 7.33807 12.7835 8.18198C11.9396 9.02589 10.795 9.5 9.60156 9.5C8.40809 9.5 7.2635 9.02589 6.41958 8.18198C5.57567 7.33807 5.10156 6.19347 5.10156 5C5.10156 3.80653 5.57567 2.66193 6.41958 1.81802C7.2635 0.974106 8.40809 0.5 9.60156 0.5ZM9.60156 2.75C9.00483 2.75 8.43253 2.98705 8.01057 3.40901C7.58862 3.83097 7.35156 4.40326 7.35156 5C7.35156 5.59674 7.58862 6.16903 8.01057 6.59099C8.43253 7.01295 9.00483 7.25 9.60156 7.25C10.1983 7.25 10.7706 7.01295 11.1926 6.59099C11.6145 6.16903 11.8516 5.59674 11.8516 5C11.8516 4.40326 11.6145 3.83097 11.1926 3.40901C10.7706 2.98705 10.1983 2.75 9.60156 2.75ZM9.60156 10.625C12.6053 10.625 18.6016 12.1213 18.6016 15.125V18.5H0.601562V15.125C0.601562 12.1213 6.59781 10.625 9.60156 10.625ZM9.60156 12.7625C6.26031 12.7625 2.73906 14.405 2.73906 15.125V16.3625H16.4641V15.125C16.4641 14.405 12.9428 12.7625 9.60156 12.7625Z" fill="#E94445"/>
</svg>
