<svg width="52" height="52" viewBox="0 0 52 52" fill="none" xmlns="http://www.w3.org/2000/svg">
<g clip-path="url(#clip0_465_16338)">
<path d="M26.1484 9C21.6398 9 17.3157 10.7911 14.1276 13.9792C10.9395 17.1673 9.14844 21.4913 9.14844 26C9.14844 30.5087 10.9395 34.8327 14.1276 38.0208C17.3157 41.2089 21.6398 43 26.1484 43C30.6571 43 34.9811 41.2089 38.1693 38.0208C41.3574 34.8327 43.1484 30.5087 43.1484 26C43.1484 21.4913 41.3574 17.1673 38.1693 13.9792C34.9811 10.7911 30.6571 9 26.1484 9ZM4.89844 26C4.89844 14.2636 14.4121 4.75 26.1484 4.75C37.8848 4.75 47.3984 14.2636 47.3984 26C47.3984 37.7364 37.8848 47.25 26.1484 47.25C14.4121 47.25 4.89844 37.7364 4.89844 26ZM17.2086 17.0601C17.6071 16.6617 18.1475 16.438 18.7109 16.438C19.2744 16.438 19.8148 16.6617 20.2133 17.0601L26.1484 22.9953L32.0836 17.0601C32.2796 16.8572 32.5141 16.6953 32.7733 16.5839C33.0326 16.4725 33.3114 16.4139 33.5936 16.4115C33.8757 16.409 34.1556 16.4628 34.4167 16.5696C34.6779 16.6765 34.9151 16.8343 35.1147 17.0338C35.3142 17.2333 35.472 17.4706 35.5788 17.7317C35.6857 17.9929 35.7394 18.2727 35.737 18.5549C35.7345 18.837 35.6759 19.1159 35.5645 19.3751C35.4532 19.6344 35.2913 19.8688 35.0883 20.0649L29.1532 26L35.0883 31.9351C35.4754 32.3359 35.6896 32.8727 35.6847 33.4299C35.6799 33.987 35.4564 34.52 35.0624 34.914C34.6684 35.308 34.1355 35.5315 33.5783 35.5363C33.0211 35.5412 32.4843 35.327 32.0836 34.9399L26.1484 29.0047L20.2133 34.9399C19.8125 35.327 19.2758 35.5412 18.7186 35.5363C18.1614 35.5315 17.6284 35.308 17.2344 34.914C16.8405 34.52 16.617 33.987 16.6121 33.4299C16.6073 32.8727 16.8215 32.3359 17.2086 31.9351L23.1437 26L17.2086 20.0649C16.8102 19.6664 16.5864 19.126 16.5864 18.5625C16.5864 17.999 16.8102 17.4586 17.2086 17.0601Z" fill="#FF0000"/>
</g>
<defs>
<clipPath id="clip0_465_16338">
<rect width="51" height="51" fill="white" transform="translate(0.648438 0.5)"/>
</clipPath>
</defs>
</svg>
