<svg width="52" height="52" viewBox="0 0 52 52" fill="none" xmlns="http://www.w3.org/2000/svg">
<path d="M25.8984 8.75C21.3898 8.75 17.0657 10.5411 13.8776 13.7292C10.6895 16.9173 8.89844 21.2413 8.89844 25.75C8.89844 30.2587 10.6895 34.5827 13.8776 37.7708C17.0657 40.9589 21.3898 42.75 25.8984 42.75C30.4071 42.75 34.7311 40.9589 37.9193 37.7708C41.1074 34.5827 42.8984 30.2587 42.8984 25.75C42.8984 21.2413 41.1074 16.9173 37.9193 13.7292C34.7311 10.5411 30.4071 8.75 25.8984 8.75ZM4.64844 25.75C4.64844 14.0136 14.1621 4.5 25.8984 4.5C37.6348 4.5 47.1484 14.0136 47.1484 25.75C47.1484 37.4864 37.6348 47 25.8984 47C14.1621 47 4.64844 37.4864 4.64844 25.75ZM16.9586 16.8101C17.3571 16.4117 17.8975 16.188 18.4609 16.188C19.0244 16.188 19.5648 16.4117 19.9633 16.8101L25.8984 22.7453L31.8336 16.8101C32.0296 16.6072 32.2641 16.4453 32.5233 16.3339C32.7826 16.2225 33.0614 16.1639 33.3436 16.1615C33.6257 16.159 33.9056 16.2128 34.1667 16.3196C34.4279 16.4265 34.6651 16.5843 34.8647 16.7838C35.0642 16.9833 35.222 17.2206 35.3288 17.4817C35.4357 17.7429 35.4894 18.0227 35.487 18.3049C35.4845 18.587 35.4259 18.8659 35.3145 19.1251C35.2032 19.3844 35.0413 19.6188 34.8383 19.8149L28.9032 25.75L34.8383 31.6851C35.2254 32.0859 35.4396 32.6227 35.4347 33.1799C35.4299 33.737 35.2064 34.27 34.8124 34.664C34.4184 35.058 33.8855 35.2815 33.3283 35.2863C32.7711 35.2911 32.2343 35.077 31.8336 34.6899L25.8984 28.7547L19.9633 34.6899C19.5625 35.077 19.0258 35.2911 18.4686 35.2863C17.9114 35.2815 17.3784 35.058 16.9844 34.664C16.5905 34.27 16.367 33.737 16.3621 33.1799C16.3573 32.6227 16.5715 32.0859 16.9586 31.6851L22.8937 25.75L16.9586 19.8149C16.5602 19.4164 16.3364 18.876 16.3364 18.3125C16.3364 17.749 16.5602 17.2086 16.9586 16.8101Z" fill="#017745"/>
<ellipse cx="26.1484" cy="26" rx="14.5" ry="13.5" fill="#D1FADF"/>
<path d="M35.3608 19.8074C35.1786 19.6105 34.9321 19.5 34.6752 19.5C34.4183 19.5 34.1718 19.6105 33.9896 19.8074L23.1952 31.4875L17.3604 25.1453C17.1825 24.9365 16.9354 24.813 16.6737 24.8021C16.412 24.7912 16.1571 24.8938 15.9649 25.0872C15.7728 25.2806 15.6592 25.5491 15.6492 25.8336C15.6391 26.118 15.7335 26.3952 15.9114 26.604L23.1952 34.5L35.3608 21.3083C35.4519 21.2101 35.5243 21.0932 35.5736 20.9644C35.623 20.8356 35.6484 20.6974 35.6484 20.5579C35.6484 20.4183 35.623 20.2802 35.5736 20.1514C35.5243 20.0225 35.4519 19.9056 35.3608 19.8074Z" fill="#017745"/>
</svg>
