<svg width="25" height="24" viewBox="0 0 25 24" fill="none" xmlns="http://www.w3.org/2000/svg">
<path d="M3.55469 12.002C3.55469 13.1838 3.78748 14.3542 4.23977 15.4461C4.69206 16.538 5.355 17.5302 6.19073 18.3659C7.02645 19.2016 8.01861 19.8646 9.11054 20.3169C10.2025 20.7692 11.3728 21.002 12.5547 21.002C13.7366 21.002 14.9069 20.7692 15.9988 20.3169C17.0908 19.8646 18.0829 19.2016 18.9186 18.3659C19.7544 17.5302 20.4173 16.538 20.8696 15.4461C21.3219 14.3542 21.5547 13.1838 21.5547 12.002C21.5547 9.615 20.6065 7.32582 18.9186 5.63799C17.2308 3.95016 14.9416 3.00195 12.5547 3.00195C10.1677 3.00195 7.87855 3.95016 6.19073 5.63799C4.5029 7.32582 3.55469 9.615 3.55469 12.002Z" stroke="black" stroke-width="2" stroke-linecap="round" stroke-linejoin="round"/>
<path d="M12.5547 7.00195V12.002L15.5547 15.002" stroke="black" stroke-width="2" stroke-linecap="round" stroke-linejoin="round"/>
</svg>
