<svg width="46" height="74" viewBox="0 0 46 74" fill="none" xmlns="http://www.w3.org/2000/svg">
<path d="M13.8133 69.1312L9.47494 67.9737C13.0373 64.9952 21.0432 56.1431 24.6008 52.0894C31.6703 44.2019 38.6761 32.7829 42.1706 25.3745C58.0944 -8.39099 11.3216 1.63274 9.55527 1.81168C9.17414 1.8503 8.69326 2.70935 10.0871 2.68983C11.0237 2.29119 57.0516 -6.38236 41.1452 23.9115C36.7031 32.3715 33.929 35.7364 29.2486 42.8119C23.942 51.2613 12.451 62.7121 7.3688 67.3813C7.24442 66.5334 6.82237 64.4552 6.1291 62.926C5.43583 61.3967 4.57779 62.563 4.23542 63.3373C3.07445 66.0611 0.659546 71.7521 0.287735 72.7252C-0.0840798 73.6984 0.87886 73.8874 1.4068 73.8602C4.49985 73.9102 12.505 70.9246 13.6527 70.4785C14.5708 70.1216 14.1423 69.4316 13.8133 69.1312Z" fill="#342733"/>
</svg>
