<svg width="70" height="62" viewBox="0 0 70 62" fill="none" xmlns="http://www.w3.org/2000/svg">
<path d="M1.97809 50.4988L4.32247 53.2895C6.19289 49.8655 12.4813 41.5486 15.3917 37.8182C21.013 30.4538 34.7562 19.3091 40.9251 14.6573C48.1393 9.56902 67.2119 0.294006 68.6989 0.171742C69.5437 0.102288 69.536 0.532933 69.2112 0.77603C64.7302 1.90969 51.97 9.38053 47.1838 12.3226C39.4439 15.9611 28.5524 26.3872 23.0403 31.7971C16.3779 38.054 8.56416 49.6297 5.49011 54.6355C6.34435 54.4806 8.47115 54.1856 10.1444 54.2441C11.8176 54.3026 10.9335 55.2567 10.2823 55.7264C7.97919 57.3476 3.16421 60.7269 2.3292 61.2752C1.49418 61.8234 1.03947 61.1844 0.916494 60.7964C-0.00602603 58.5833 0.615419 51.9578 0.72201 51.0027C0.807284 50.2387 1.59493 50.3484 1.97809 50.4988Z" fill="#342733"/>
</svg>
