<svg width="58" height="122" viewBox="0 0 58 122" fill="none" xmlns="http://www.w3.org/2000/svg">
<path d="M17.0536 115.717L11.6262 114.103C15.9895 110.222 25.744 98.6423 30.0758 93.3373C38.6877 83.018 47.1365 68.0183 51.31 58.2674C70.3279 13.8252 39.0114 0.622221 36.8172 0.826549C36.3437 0.870638 35.7656 1.99991 37.5 1.99991C38.6563 1.48911 67.5 15.5 49.9989 56.3099C45.1341 67.6538 41.2979 71.8435 35.6404 81.1313C29.2361 92.228 15.2054 107.186 8.99056 113.279C8.81561 112.153 8.24088 109.392 7.34163 107.353C6.44237 105.314 5.40208 106.843 4.99434 107.862C3.61401 111.45 0.743436 118.945 0.30377 120.228C-0.135896 121.51 1.06716 121.778 1.72365 121.752C5.57475 121.876 15.4678 118.069 16.8857 117.499C18.02 117.043 17.4703 116.121 17.0536 115.717Z" fill="#342733"/>
</svg>
