<svg width="562" height="313" viewBox="0 0 562 313" fill="none" xmlns="http://www.w3.org/2000/svg">
<path d="M60 101V167.4C60 171.803 61.8379 176.025 65.1094 179.138C68.3808 182.251 72.8179 184 77.4444 184H129.778M129.778 101V267M304.222 101V167.4C304.222 171.803 306.06 176.025 309.332 179.138C312.603 182.251 317.04 184 321.667 184H374M374 101V267M182.111 117.6V250.4C182.111 254.803 183.949 259.025 187.22 262.138C190.492 265.251 194.929 267 199.556 267H234.444C239.071 267 243.508 265.251 246.78 262.138C250.051 259.025 251.889 254.803 251.889 250.4V117.6C251.889 113.197 250.051 108.975 246.78 105.862C243.508 102.749 239.071 101 234.444 101H199.556C194.929 101 190.492 102.749 187.22 105.862C183.949 108.975 182.111 113.197 182.111 117.6Z" stroke="black" stroke-width="20" stroke-linecap="round" stroke-linejoin="round"/>
<path d="M479.256 276.647C468.83 278.743 458.02 277.086 449.177 272.037C444.814 269.545 441.067 266.292 438.151 262.464C435.234 258.636 433.206 254.308 432.181 249.727L407.354 137.79C407.074 136.528 407.368 135.205 408.171 134.11C408.974 133.015 410.22 132.239 411.636 131.952C413.052 131.665 414.52 131.89 415.719 132.579C416.918 133.268 417.748 134.364 418.028 135.625L442.849 247.537C443.604 250.884 445.098 254.044 447.246 256.833C449.393 259.622 452.151 261.984 455.357 263.782C461.79 267.469 469.665 268.676 477.255 267.137C484.845 265.598 491.53 261.439 495.844 255.573C497.988 252.681 499.483 249.453 500.241 246.075C500.999 242.697 501.006 239.237 500.261 235.896L468.312 91.8483L411.048 103.459L414.376 118.463C414.655 119.725 414.361 121.048 413.558 122.143C412.755 123.238 411.509 124.014 410.093 124.301C408.678 124.588 407.209 124.363 406.01 123.674C404.812 122.985 403.981 121.889 403.701 120.628L399.324 100.894C399.189 100.271 399.193 99.6263 399.335 98.9972C399.47 98.364 399.744 97.7576 400.141 97.2137C400.553 96.68 401.065 96.2135 401.654 95.8362C402.249 95.4733 402.914 95.2171 403.613 95.0821L471.434 81.3305C472.133 81.1815 472.854 81.1579 473.555 81.2612C474.256 81.3645 474.924 81.5925 475.518 81.932C476.113 82.2715 476.622 82.7157 477.017 83.2387C477.413 83.7617 477.685 84.353 477.82 84.9781L510.818 233.755C512.843 243.033 510.658 252.758 504.742 260.798C498.825 268.838 489.661 274.537 479.256 276.647Z" fill="#010101"/>
<path d="M432.297 166.023L449.992 245.805C451.123 250.903 454.467 255.334 459.289 258.124C464.111 260.913 470.015 261.832 475.704 260.679C481.392 259.525 486.398 256.394 489.621 251.973C492.844 247.553 494.019 242.205 492.888 237.107L475.193 157.325L432.297 166.023Z" fill="#C3A3A3"/>
<path d="M452.155 55.3962C451.86 54.0611 451.139 52.854 450.111 51.9755C449.077 51.102 447.803 50.6055 446.495 50.5661C445.184 50.5414 443.921 50.9841 442.916 51.8208C441.917 52.6121 441.217 53.7421 440.93 55.0272C440.126 53.936 439 53.1477 437.736 52.7917C436.47 52.4367 435.141 52.5291 433.963 53.0543C432.778 53.5782 431.82 54.5202 431.251 55.7201C430.664 56.9454 430.506 58.359 430.803 59.7255C430.954 60.3816 431.212 61.0095 431.568 61.5807C431.955 62.2177 432.447 62.781 433.021 63.2434C433.258 63.442 433.515 63.6117 433.788 63.7491L444.264 70.8561L444.65 70.7778L451.526 59.8351C451.928 59.185 452.202 58.4558 452.335 57.6873C452.446 56.9238 452.417 56.1401 452.252 55.3767L452.155 55.3962Z" fill="#A78686"/>
<path d="M456.473 123.905C456.179 122.57 455.457 121.363 454.429 120.484C453.395 119.611 452.121 119.114 450.814 119.075C449.503 119.05 448.24 119.493 447.235 120.33C446.235 121.121 445.535 122.251 445.248 123.536C444.445 122.445 443.319 121.657 442.055 121.3C440.788 120.945 439.46 121.038 438.281 121.563C437.096 122.087 436.138 123.029 435.57 124.229C434.983 125.454 434.825 126.868 435.122 128.234C435.272 128.89 435.531 129.518 435.886 130.09C436.274 130.727 436.766 131.29 437.339 131.752C437.576 131.951 437.834 132.12 438.107 132.258L448.583 139.365L448.969 139.287L455.844 128.344C456.246 127.694 456.521 126.965 456.654 126.196C456.764 125.433 456.736 124.649 456.57 123.885L456.473 123.905Z" fill="#A58484"/>
<path d="M399.66 19.9184C399.365 18.5833 398.644 17.3762 397.615 16.4977C396.581 15.6242 395.308 15.1278 394 15.0883C392.689 15.0636 391.426 15.5063 390.421 16.343C389.422 17.1343 388.722 18.2643 388.435 19.5495C387.631 18.4583 386.505 17.67 385.241 17.3139C383.975 16.9589 382.646 17.0514 381.468 17.5765C380.283 18.1004 379.325 19.0424 378.756 20.2423C378.169 21.4676 378.011 22.8813 378.308 24.2477C378.459 24.9038 378.717 25.5317 379.073 26.1029C379.46 26.7399 379.952 27.3032 380.526 27.7657C380.763 27.9642 381.02 28.1339 381.293 28.2713L391.769 35.3783L392.155 35.3L399.031 24.3573C399.433 23.7072 399.707 22.978 399.84 22.2095C399.951 21.446 399.922 20.6623 399.756 19.8989L399.66 19.9184Z" fill="#A78686"/>
<path d="M170.66 294.918C170.365 293.583 169.644 292.376 168.615 291.498C167.581 290.624 166.308 290.128 165 290.088C163.689 290.064 162.426 290.506 161.421 291.343C160.422 292.134 159.722 293.264 159.435 294.549C158.631 293.458 157.505 292.67 156.241 292.314C154.975 291.959 153.646 292.051 152.468 292.577C151.283 293.1 150.325 294.042 149.756 295.242C149.169 296.468 149.011 297.881 149.308 299.248C149.459 299.904 149.717 300.532 150.073 301.103C150.46 301.74 150.952 302.303 151.526 302.766C151.763 302.964 152.02 303.134 152.293 303.271L162.769 310.378L163.155 310.3L170.031 299.357C170.433 298.707 170.707 297.978 170.84 297.209C170.951 296.446 170.922 295.662 170.756 294.899L170.66 294.918Z" fill="#C0ABAB"/>
<path d="M350.66 82.9184C350.365 81.5833 349.644 80.3762 348.615 79.4977C347.581 78.6242 346.308 78.1278 345 78.0883C343.689 78.0636 342.426 78.5063 341.421 79.343C340.422 80.1343 339.722 81.2643 339.435 82.5495C338.631 81.4583 337.505 80.67 336.241 80.3139C334.975 79.9589 333.646 80.0514 332.468 80.5765C331.283 81.1004 330.325 82.0424 329.756 83.2423C329.169 84.4676 329.011 85.8813 329.308 87.2477C329.459 87.9038 329.717 88.5317 330.073 89.1029C330.46 89.7399 330.952 90.3032 331.526 90.7657C331.763 90.9642 332.02 91.1339 332.293 91.2713L342.769 98.3783L343.155 98.3L350.031 87.3573C350.433 86.7072 350.707 85.978 350.84 85.2095C350.951 84.446 350.922 83.6623 350.756 82.8989L350.66 82.9184Z" fill="#A78686"/>
<path d="M157.66 5.91844C157.365 4.5833 156.644 3.3762 155.615 2.49771C154.581 1.62425 153.308 1.12777 152 1.0883C150.689 1.06358 149.426 1.5063 148.421 2.34298C147.422 3.13432 146.722 4.2643 146.435 5.54946C145.631 4.45827 144.505 3.66996 143.241 3.3139C141.975 2.95889 140.646 3.05136 139.468 3.57654C138.283 4.10042 137.325 5.04243 136.756 6.24232C136.169 7.46765 136.011 8.88125 136.308 10.2477C136.459 10.9038 136.717 11.5317 137.073 12.1029C137.46 12.7399 137.952 13.3032 138.526 13.7657C138.763 13.9642 139.02 14.1339 139.293 14.2713L149.769 21.3783L150.155 21.3L157.031 10.3573C157.433 9.70724 157.707 8.97805 157.84 8.20948C157.951 7.44599 157.922 6.66235 157.756 5.89888L157.66 5.91844Z" fill="#A78686"/>
<path d="M22.6599 173.918C22.3651 172.583 21.6436 171.376 20.6154 170.498C19.5815 169.624 18.308 169.128 17.0002 169.088C15.6891 169.064 14.4262 169.506 13.4212 170.343C12.4219 171.134 11.7219 172.264 11.4348 173.549C10.6312 172.458 9.50512 171.67 8.24137 171.314C6.97462 170.959 5.64606 171.051 4.46754 171.577C3.28283 172.1 2.3247 173.042 1.75614 174.242C1.16919 175.468 1.01114 176.881 1.30833 178.248C1.45857 178.904 1.7173 179.532 2.07275 180.103C2.46019 180.74 2.95237 181.303 3.52561 181.766C3.76269 181.964 4.02034 182.134 4.29324 182.271L14.769 189.378L15.155 189.3L22.0309 178.357C22.4326 177.707 22.7073 176.978 22.8403 176.209C22.9507 175.446 22.9223 174.662 22.7564 173.899L22.6599 173.918Z" fill="#A78686"/>
<path d="M226.66 185.918C226.365 184.583 225.644 183.376 224.615 182.498C223.581 181.624 222.308 181.128 221 181.088C219.689 181.064 218.426 181.506 217.421 182.343C216.422 183.134 215.722 184.264 215.435 185.549C214.631 184.458 213.505 183.67 212.241 183.314C210.975 182.959 209.646 183.051 208.468 183.577C207.283 184.1 206.325 185.042 205.756 186.242C205.169 187.468 205.011 188.881 205.308 190.248C205.459 190.904 205.717 191.532 206.073 192.103C206.46 192.74 206.952 193.303 207.526 193.766C207.763 193.964 208.02 194.134 208.293 194.271L218.769 201.378L219.155 201.3L226.031 190.357C226.433 189.707 226.707 188.978 226.84 188.209C226.951 187.446 226.922 186.662 226.756 185.899L226.66 185.918Z" fill="#A78686"/>
<path d="M324.66 274.918C324.365 273.583 323.644 272.376 322.615 271.498C321.581 270.624 320.308 270.128 319 270.088C317.689 270.064 316.426 270.506 315.421 271.343C314.422 272.134 313.722 273.264 313.435 274.549C312.631 273.458 311.505 272.67 310.241 272.314C308.975 271.959 307.646 272.051 306.468 272.577C305.283 273.1 304.325 274.042 303.756 275.242C303.169 276.468 303.011 277.881 303.308 279.248C303.459 279.904 303.717 280.532 304.073 281.103C304.46 281.74 304.952 282.303 305.526 282.766C305.763 282.964 306.02 283.134 306.293 283.271L316.769 290.378L317.155 290.3L324.031 279.357C324.433 278.707 324.707 277.978 324.84 277.209C324.951 276.446 324.922 275.662 324.756 274.899L324.66 274.918Z" fill="#A78686"/>
</svg>
