<svg width="56" height="98" viewBox="0 0 56 98" fill="none" xmlns="http://www.w3.org/2000/svg">
<path d="M17.5474 91.9651L12.1199 90.351C16.4833 86.4707 26.2378 74.8906 30.5696 69.5857C39.1815 59.2663 47.6303 44.2666 51.8037 34.5157C70.8217 -9.92651 12.8417 2.48669 10.6475 2.69102C10.174 2.73511 9.59588 3.86439 11.3303 3.86439C12.4866 3.35358 69.5714 -7.28452 50.4927 32.5582C45.1647 43.6849 41.7917 48.0919 36.1342 57.3796C29.7299 68.4763 15.6992 83.4348 9.48434 89.5269C9.30939 88.4012 8.73466 85.64 7.8354 83.6009C6.93614 81.5619 5.89585 83.0912 5.48811 84.1108C4.10779 87.6982 1.23721 95.1936 0.797547 96.4761C0.357881 97.7586 1.56094 98.0268 2.21742 98.0006C6.06852 98.1242 15.9616 94.317 17.3795 93.7472C18.5138 93.2913 17.964 92.3692 17.5474 91.9651Z" fill="white"/>
</svg>
