<svg width="113" height="91" viewBox="0 0 113 91" fill="none" xmlns="http://www.w3.org/2000/svg">
<path d="M3.30455 73.1074L6.73441 77.6525C9.93175 72.4633 20.4208 60.001 25.2656 54.4185C34.6361 43.3876 56.9861 27.1217 66.9898 20.3675C78.6598 13.0177 109.172 0.103385 111.502 0.0339351C112.825 -0.00551654 112.778 0.665713 112.251 1.01848C105.168 2.4216 84.6515 13.0361 76.9445 17.2356C64.5726 22.2809 46.7301 37.6583 37.6894 45.6488C26.7849 54.8668 13.6504 72.2888 8.44627 79.8476C9.79161 79.6758 13.1337 79.389 15.7394 79.6168C18.3451 79.8445 16.8879 81.2609 15.8336 81.9406C12.1083 84.2819 4.32074 89.1613 2.9733 89.9485C1.62587 90.7357 0.968587 89.7017 0.808377 89.0863C-0.45034 85.5584 1.05961 75.2726 1.30381 73.7913C1.49917 72.6062 2.71904 72.8416 3.30455 73.1074Z" fill="white"/>
</svg>
