<svg width="25" height="24" viewBox="0 0 25 24" fill="none" xmlns="http://www.w3.org/2000/svg">
<path d="M19.4453 3.00195H5.44531C4.91488 3.00195 4.40617 3.21267 4.0311 3.58774C3.65603 3.96281 3.44531 4.47152 3.44531 5.00195V19.002C3.44531 19.5324 3.65603 20.0411 4.0311 20.4162C4.40617 20.7912 4.91488 21.002 5.44531 21.002H19.4453C19.9757 21.002 20.4845 20.7912 20.8595 20.4162C21.2346 20.0411 21.4453 19.5324 21.4453 19.002V5.00195C21.4453 4.47152 21.2346 3.96281 20.8595 3.58774C20.4845 3.21267 19.9757 3.00195 19.4453 3.00195ZM10.4453 17.002L5.44531 12.002L6.85531 10.592L10.4453 14.172L18.0353 6.58195L19.4453 8.00195L10.4453 17.002Z" fill="#123375"/>
</svg>
