<svg width="59" height="59" viewBox="0 0 59 59" fill="none" xmlns="http://www.w3.org/2000/svg">
<g filter="url(#filter0_d_1473_5716)">
<path d="M29.5 0C36.263 0 42.749 2.6866 47.5312 7.46878C52.3134 12.251 55 18.737 55 25.5C55 32.263 52.3134 38.749 47.5312 43.5312C42.749 48.3134 36.263 51 29.5 51C22.737 51 16.251 48.3134 11.4688 43.5312C6.6866 38.749 4 32.263 4 25.5C4 18.737 6.6866 12.251 11.4688 7.46878C16.251 2.6866 22.737 0 29.5 0ZM26.3234 30.5308L20.6588 24.8625C20.4557 24.6594 20.2146 24.4983 19.9493 24.3884C19.684 24.2785 19.3996 24.222 19.1124 24.222C18.8252 24.222 18.5408 24.2785 18.2755 24.3884C18.0102 24.4983 17.7691 24.6594 17.566 24.8625C17.1559 25.2726 16.9255 25.8289 16.9255 26.4089C16.9255 26.9889 17.1559 27.5452 17.566 27.9553L24.7789 35.1681C24.9814 35.3722 25.2222 35.5342 25.4877 35.6448C25.7531 35.7554 26.0377 35.8123 26.3252 35.8123C26.6128 35.8123 26.8974 35.7554 27.1628 35.6448C27.4282 35.5342 27.6691 35.3722 27.8716 35.1681L42.8074 20.2288C43.0131 20.0266 43.1769 19.7856 43.2891 19.5198C43.4012 19.2539 43.4597 18.9685 43.461 18.68C43.4624 18.3915 43.4066 18.1056 43.2969 17.8387C43.1872 17.5719 43.0257 17.3294 42.8218 17.1252C42.6179 16.9211 42.3756 16.7593 42.1089 16.6493C41.8421 16.5393 41.5563 16.4831 41.2678 16.4841C40.9792 16.4851 40.6938 16.5433 40.4278 16.6551C40.1619 16.767 39.9207 16.9304 39.7182 17.136L26.3234 30.5308Z" fill="#35986B"/>
</g>
<defs>
<filter id="filter0_d_1473_5716" x="0" y="0" width="59" height="59" filterUnits="userSpaceOnUse" color-interpolation-filters="sRGB">
<feFlood flood-opacity="0" result="BackgroundImageFix"/>
<feColorMatrix in="SourceAlpha" type="matrix" values="0 0 0 0 0 0 0 0 0 0 0 0 0 0 0 0 0 0 127 0" result="hardAlpha"/>
<feOffset dy="4"/>
<feGaussianBlur stdDeviation="2"/>
<feComposite in2="hardAlpha" operator="out"/>
<feColorMatrix type="matrix" values="0 0 0 0 0 0 0 0 0 0 0 0 0 0 0 0 0 0 0.11 0"/>
<feBlend mode="normal" in2="BackgroundImageFix" result="effect1_dropShadow_1473_5716"/>
<feBlend mode="normal" in="SourceGraphic" in2="effect1_dropShadow_1473_5716" result="shape"/>
</filter>
</defs>
</svg>
