<svg width="25" height="26" viewBox="0 0 25 26" fill="none" xmlns="http://www.w3.org/2000/svg">
<path d="M21.25 1.28247H3.75C2.375 1.28247 1.25 2.43665 1.25 3.84732V21.8013C1.25 23.2132 2.375 24.3661 3.75 24.3661H12.5V15.3891H10V12.2151H12.5V9.58617C12.5 6.811 14.015 4.86172 17.2075 4.86172L19.4613 4.86428V8.205H17.965C16.7225 8.205 16.25 9.16169 16.25 10.0491V12.2164H19.46L18.75 15.3891H16.25V24.3661H21.25C22.625 24.3661 23.75 23.2132 23.75 21.8013V3.84732C23.75 2.43665 22.625 1.28247 21.25 1.28247Z" fill="white"/>
</svg>
