<svg width="20" height="21" viewBox="0 0 20 21" fill="none" xmlns="http://www.w3.org/2000/svg">
<path d="M9.52797 2.44434H2.8951C2.39249 2.44434 1.91046 2.644 1.55506 2.9994C1.19966 3.3548 1 3.83683 1 4.33944V17.6052C1 18.1078 1.19966 18.5898 1.55506 18.9452C1.91046 19.3006 2.39249 19.5003 2.8951 19.5003H16.1608C16.6634 19.5003 17.1455 19.3006 17.5009 18.9452C17.8563 18.5898 18.0559 18.1078 18.0559 17.6052V10.9723" stroke="black" stroke-width="2" stroke-linecap="round" stroke-linejoin="round"/>
<path d="M15.5691 2.08873C15.9461 1.71177 16.4574 1.5 16.9905 1.5C17.5236 1.5 18.0348 1.71177 18.4118 2.08873C18.7887 2.46569 19.0005 2.97696 19.0005 3.51006C19.0005 4.04316 18.7887 4.55443 18.4118 4.93139L9.52849 13.8147L5.73828 14.7622L6.68583 10.972L15.5691 2.08873Z" stroke="black" stroke-width="2" stroke-linecap="round" stroke-linejoin="round"/>
</svg>
