<svg width="51" height="50" viewBox="0 0 51 50" fill="none" xmlns="http://www.w3.org/2000/svg">
<path d="M36.0647 4.16629C38.8251 4.17454 41.47 5.27473 43.4218 7.22659C45.3737 9.17845 46.4739 11.8234 46.4821 14.5837V35.4163C46.4739 38.1766 45.3737 40.8216 43.4218 42.7734C41.47 44.7253 38.8251 45.8255 36.0647 45.8337H15.2321C12.4718 45.8255 9.82689 44.7253 7.87503 42.7734C5.92317 40.8216 4.82298 38.1766 4.81473 35.4163V14.5837C4.82298 11.8234 5.92317 9.17845 7.87503 7.22659C9.82689 5.27473 12.4718 4.17454 15.2321 4.16629H36.0647ZM36.0647 0H15.2321C7.21094 0 0.648438 6.5625 0.648438 14.5837V35.4163C0.648438 43.4375 7.21094 50 15.2321 50H36.0647C44.0859 50 50.6484 43.4375 50.6484 35.4163V14.5837C50.6484 6.5625 44.0859 0 36.0647 0Z" fill="black"/>
<path d="M38.6586 13.7565C38.0531 13.7565 37.4613 13.5703 36.9579 13.2215C36.4544 12.8727 36.0621 12.3768 35.8304 11.7968C35.5987 11.2167 35.538 10.5783 35.6562 9.96253C35.7743 9.34671 36.0658 8.78104 36.494 8.33706C36.9221 7.89308 37.4675 7.59072 38.0614 7.46823C38.6552 7.34573 39.2707 7.4086 39.8301 7.64888C40.3895 7.88916 40.8676 8.29607 41.2039 8.81813C41.5403 9.3402 41.7199 9.95398 41.7199 10.5819C41.7207 10.999 41.6421 11.4122 41.4886 11.7978C41.3351 12.1834 41.1096 12.5337 40.8252 12.8287C40.5407 13.1237 40.2029 13.3575 39.8311 13.5167C39.4593 13.6759 39.0608 13.7574 38.6586 13.7565ZM25.3935 15.8722C27.0081 15.8722 28.5865 16.3687 29.929 17.299C31.2715 18.2292 32.3179 19.5515 32.9358 21.0984C33.5537 22.6454 33.7154 24.3477 33.4004 25.9899C33.0854 27.6322 32.3078 29.1407 31.1661 30.3247C30.0244 31.5087 28.5698 32.315 26.9862 32.6417C25.4025 32.9684 23.7611 32.8007 22.2694 32.1599C20.7776 31.5191 19.5026 30.434 18.6056 29.0418C17.7086 27.6495 17.2298 26.0127 17.2298 24.3383C17.2321 22.0937 18.0929 19.9417 19.6234 18.3545C21.1539 16.7673 23.229 15.8746 25.3935 15.8722ZM25.3935 11.6397C22.9716 11.6397 20.6042 12.3845 18.5905 13.7798C16.5768 15.1751 15.0073 17.1584 14.0805 19.4787C13.1537 21.7991 12.9113 24.3524 13.3837 26.8156C13.8562 29.2789 15.0224 31.5416 16.7349 33.3175C18.4474 35.0934 20.6293 36.3029 23.0046 36.7928C25.3799 37.2828 27.842 37.0314 30.0795 36.0702C32.317 35.1091 34.2294 33.4815 35.5749 31.3932C36.9204 29.305 37.6385 26.8498 37.6385 24.3383C37.6385 20.9704 36.3484 17.7405 34.052 15.359C31.7557 12.9776 28.6411 11.6397 25.3935 11.6397Z" fill="black"/>
</svg>
