<svg width="18" height="19" viewBox="0 0 18 19" fill="none" xmlns="http://www.w3.org/2000/svg">
<path d="M2 18.5C1.45 18.5 0.979333 18.3043 0.588 17.913C0.196667 17.5217 0.000666667 17.0507 0 16.5V12.5H2V16.5H16V2.5H2V6.5H0V2.5C0 1.95 0.196 1.47933 0.588 1.088C0.98 0.696667 1.45067 0.500667 2 0.5H16C16.55 0.5 17.021 0.696 17.413 1.088C17.805 1.48 18.0007 1.95067 18 2.5V16.5C18 17.05 17.8043 17.521 17.413 17.913C17.0217 18.305 16.5507 18.5007 16 18.5H2ZM7.5 14.5L6.1 13.05L8.65 10.5H0V8.5H8.65L6.1 5.95L7.5 4.5L12.5 9.5L7.5 14.5Z" fill="black"/>
</svg>
