<svg width="51" height="50" viewBox="0 0 51 50" fill="none" xmlns="http://www.w3.org/2000/svg">
<path d="M44.2418 13.2498C37.7106 3.12477 24.3356 0.124766 13.9919 6.40602C3.89811 12.6873 0.648105 26.3748 7.17935 36.4685L7.7106 37.281L5.5231 45.4685L13.7106 43.281L14.5231 43.8123C18.0544 45.7185 21.8981 46.8123 25.7106 46.8123C29.8044 46.8123 33.8981 45.7185 37.4294 43.531C47.5231 36.9685 50.5231 23.5623 44.2418 13.1873V13.2498ZM38.5231 34.3123C37.4294 35.9373 36.0544 37.031 34.1481 37.3123C33.0544 37.3123 31.6793 37.8435 26.2418 35.6873C21.6169 33.4998 17.7731 29.9373 15.0544 25.8435C13.4294 23.9373 12.5856 21.4685 12.3356 18.9998C12.3356 16.8123 13.1481 14.906 14.5231 13.531C15.0544 12.9998 15.6169 12.7185 16.1481 12.7185H17.5231C18.0544 12.7185 18.6169 12.7185 18.8981 13.8123C19.4294 15.1873 20.8044 18.4685 20.8044 18.7498C21.0856 19.031 20.9606 21.1248 19.7106 22.3123C19.0231 23.0935 18.8981 23.1248 19.1794 23.6873C20.2731 25.3123 21.6481 26.9685 22.9919 28.3435C24.6169 29.7185 26.2731 30.8123 28.1794 31.6248C28.7106 31.906 29.2731 31.906 29.5544 31.3435C29.8356 30.8123 31.1793 29.4373 31.7418 28.8748C32.2731 28.3435 32.5544 28.3435 33.1169 28.5935L37.4919 30.781C38.0231 31.0623 38.5856 31.3123 38.8668 31.5935C39.1481 32.406 39.1481 33.4998 38.5856 34.3123H38.5231Z" fill="black"/>
</svg>
