<svg width="55" height="56" viewBox="0 0 55 56" fill="none" xmlns="http://www.w3.org/2000/svg">
<path d="M46.5177 3.2802L8.71998 2.86156C5.75016 2.82867 3.2927 5.29464 3.25896 8.34149L2.82945 47.1196C2.79568 50.1692 5.19795 52.6863 8.16777 52.7192L27.0666 52.9285L27.2814 33.5394L21.8817 33.4796L21.9576 26.6242L27.3573 26.684L27.4202 21.0058C27.4866 15.0118 30.8054 10.8378 37.7008 10.9142L42.5685 10.9737L42.4886 18.1892L39.2569 18.1534C36.5733 18.1236 35.5298 20.1787 35.5086 22.0954L35.4568 26.7765L42.3899 26.8533L40.7805 33.6889L35.3809 33.6291L35.1661 53.0182L45.9654 53.1378C48.9353 53.1707 51.3927 50.7075 51.4265 47.6579L51.856 8.87974C51.8897 5.83289 49.4875 3.3131 46.5177 3.2802Z" fill="black"/>
</svg>
