<svg width="51" height="50" viewBox="0 0 51 50" fill="none" xmlns="http://www.w3.org/2000/svg">
<path d="M40.3168 7.83333C38.137 5.66562 36.9358 2.88176 36.9367 0H27.0834V34.4444C27.0074 36.3084 26.104 38.0739 24.5635 39.3693C23.023 40.6646 20.9656 41.3886 18.8245 41.3889C14.2964 41.3889 10.5336 38.1667 10.5336 34.1667C10.5336 29.3889 15.827 25.8056 21.2798 27.2778V18.5C10.2785 17.2222 0.648438 24.6667 0.648438 34.1667C0.648438 43.4167 9.44946 50 18.7926 50C28.8053 50 36.9367 42.9167 36.9367 34.1667V16.6944C40.9322 19.194 45.7293 20.5351 50.6484 20.5278V11.9444C50.6484 11.9444 44.6535 12.1944 40.3168 7.83333Z" fill="black"/>
</svg>
