<svg width="213" height="64" viewBox="0 0 213 64" fill="none" xmlns="http://www.w3.org/2000/svg">
<g clip-path="url(#clip0_317_882)">
<path fill-rule="evenodd" clip-rule="evenodd" d="M93.0102 21.2441C92.2645 21.1061 91.4435 21.3572 90.5569 21.4436C90.3982 21.1523 90.2071 20.7175 89.9442 20.3308C89.3334 19.4332 88.5834 18.8008 87.5198 18.906C86.5266 19.0051 85.5162 19.7214 85.2552 20.7108C85.0506 21.491 84.9826 22.3801 85.1376 23.1658C85.4734 24.8612 86.0082 26.5201 85.504 28.2696C85.485 28.3353 85.3962 28.536 85.3073 28.6509C88.1564 28.4764 91.2321 27.9656 93.648 26.3273C94.6601 25.6408 95.279 24.6349 95.0823 23.3433C94.9046 22.177 94.0989 21.446 93.0102 21.2441Z" fill="#FF8A8F"/>
<path d="M91.4552 30.916H85.2988V51.8672H91.4552V30.916Z" fill="white"/>
<path d="M149.614 45.8712V23.0039H143.458V45.8712V51.4883H149.614H163.146V45.8712H149.614Z" fill="white"/>
<path d="M71.5681 39.4631V39.409H71.5608C70.7686 34.119 66.0894 30.0557 60.4342 30.0557C54.222 30.0557 49.1875 34.9552 49.1875 40.9992C49.1875 47.0432 54.2227 51.9427 60.4342 51.9427C62.2668 51.9427 63.9952 51.5128 65.5239 50.7569V51.5675H71.5681V42.5359C71.6411 42.0342 71.6411 39.966 71.5681 39.4631ZM60.4342 45.7363C57.7261 45.7363 55.5314 43.6007 55.5314 40.9663C55.5314 38.3314 57.7261 36.1963 60.4342 36.1963C63.1423 36.1963 65.3364 38.3314 65.3364 40.9663C65.3364 43.6007 63.1423 45.7363 60.4342 45.7363Z" fill="white"/>
<path d="M185.527 39.0725V39.0184H185.518C184.727 33.7284 180.047 29.665 174.392 29.665C168.179 29.665 163.146 34.5646 163.146 40.6085C163.146 46.6525 168.18 51.5521 174.392 51.5521C176.225 51.5521 177.953 51.1221 179.481 50.3656V51.1769H185.527V42.1446C185.597 41.6423 185.597 39.5742 185.527 39.0725ZM174.392 45.3451C171.683 45.3451 169.489 43.2094 169.489 40.5751C169.489 37.9396 171.683 35.8045 174.392 35.8045C177.1 35.8045 179.294 37.9396 179.294 40.5751C179.294 43.21 177.1 45.3451 174.392 45.3451Z" fill="white"/>
<path d="M199.077 29.6653C197.164 29.6653 195.362 30.1226 193.78 30.9278C193.78 28.184 193.78 25.4408 193.78 22.6934C191.749 22.6934 189.879 22.6934 187.775 22.6934C187.775 31.8278 187.775 40.7998 187.775 49.8004C187.793 49.8004 187.812 49.8004 187.831 49.8004V51.1771H193.936V50.3659C195.48 51.1224 197.226 51.5523 199.077 51.5523C205.351 51.5523 210.437 46.6528 210.437 40.6088C210.437 34.5648 205.352 29.6653 199.077 29.6653ZM199.077 45.3454C196.343 45.3454 194.125 43.2097 194.125 40.5754C194.125 37.9398 196.343 35.8048 199.077 35.8048C201.813 35.8048 204.03 37.9398 204.03 40.5754C204.03 43.2103 201.813 45.3454 199.077 45.3454Z" fill="white"/>
<path d="M83.5878 36.168V30.6166H79.0697V20.7646H72.9121V43.8989H72.936C73.1688 47.4588 75.4266 49.4078 75.4266 49.4078C78.1433 52.486 83.5351 51.7782 83.5351 51.7782L83.4009 45.6983H81.3398C79.2021 45.6028 79.0691 42.9259 79.0691 42.9259V36.168H83.5878Z" fill="white"/>
<path d="M102.207 30.041C91.9481 30.4539 92.6478 39.4965 92.6478 39.4965V41.1779V51.4604H98.4898V39.6455C98.8777 36.4693 101.547 35.8533 101.547 35.8533C105.01 35.5918 105.495 40.2061 105.495 40.2061V51.4604H111.338V39.6455V39.3013V39.2155C110.244 30.0361 102.207 30.041 102.207 30.041Z" fill="white"/>
<path d="M133.96 53.7493V40.0322H133.939C133.597 34.2923 128.78 29.7412 122.886 29.7412C116.767 29.7412 111.811 34.6413 111.811 40.6853C111.811 46.7287 116.767 51.6282 122.886 51.6282C124.779 51.6282 126.559 51.1582 128.118 50.3305V53.992L127.968 54.8111C127.215 57.6284 123.3 57.5232 121.438 57.2247C119.573 56.9255 119.026 53.3011 119.026 53.3011H112.382C112.459 55.8065 114.208 58.627 114.208 58.627C117.107 63.3532 121.775 63.6517 121.775 63.6517C127.047 64.4928 130.848 61.3537 132.581 58.9249C134.313 56.4955 133.96 53.7493 133.96 53.7493ZM122.884 45.4207C120.218 45.4207 118.057 43.2856 118.057 40.6507C118.057 38.0163 120.218 35.8807 122.884 35.8807C125.552 35.8807 127.712 38.0163 127.712 40.6507C127.712 43.2862 125.552 45.4207 122.884 45.4207Z" fill="white"/>
<path d="M48.5938 35.7875C48.5938 38.7465 47.9413 41.3966 46.6368 43.7366C45.3324 46.0766 43.6836 47.8736 41.6917 49.1251C40.0283 50.1917 38.219 50.8783 36.2626 51.1848C34.3063 51.49 32.2231 51.6433 30.0162 51.6433H19.9961V19.8672H29.9298C32.1808 19.8672 34.2879 20.0089 36.2516 20.2935C38.2153 20.5787 40.0571 21.2689 41.7775 22.3635C43.8846 23.7007 45.5475 25.5037 46.7667 27.7732C47.9835 30.0433 48.5938 32.7141 48.5938 35.7875ZM40.3371 35.7236C40.3371 33.6323 39.9743 31.8433 39.2514 30.3564C38.5284 28.8696 37.4127 27.7069 35.9079 26.8671C34.8185 26.27 33.6746 25.9422 32.4786 25.8862C31.2814 25.8291 29.8513 25.8005 28.1885 25.8005H28.0378V45.6899H28.1885C29.9941 45.6899 31.5179 45.6577 32.7574 45.5938C33.9969 45.53 35.1763 45.1499 36.2945 44.4524C37.613 43.6272 38.6166 42.4888 39.3053 41.0379C39.9927 39.5863 40.3371 37.8149 40.3371 35.7236Z" fill="white"/>
</g>
<path d="M3 31V47.9226C3 49.004 3.47411 50.0411 4.31802 50.8058C5.16193 51.5704 6.30653 52 7.5 52C8.69347 52 9.83807 51.5704 10.682 50.8058C11.5259 50.0411 12 49.004 12 47.9226V31H3Z" fill="#FF8A8F"/>
<path d="M7.5028 55C5.51492 54.9964 3.60885 54.2146 2.1991 52.8246C1.50366 52.1387 0.951455 51.3235 0.574102 50.4257C0.196749 49.5279 0.00165808 48.5651 0 47.5924V23.8301C0 23.5623 0.107253 23.3055 0.298164 23.1161C0.489075 22.9268 0.748007 22.8204 1.018 22.8204C1.28799 22.8204 1.54692 22.9268 1.73783 23.1161C1.92874 23.3055 2.03599 23.5623 2.03599 23.8301V47.5868C2.03822 48.2979 2.18308 49.0015 2.46213 49.6565C2.74119 50.3115 3.14886 50.9049 3.66141 51.4022C4.68627 52.4162 6.07483 52.9857 7.52249 52.9857C8.97015 52.9857 10.3587 52.4162 11.3836 51.4022C11.892 50.9031 12.2956 50.3088 12.5707 49.6539C12.8459 48.9989 12.9872 48.2963 12.9865 47.5868V17.0081H2.06411V20.1932C2.06411 20.461 1.95686 20.7178 1.76595 20.9071C1.57504 21.0964 1.31611 21.2028 1.04612 21.2028C0.776129 21.2028 0.517197 21.0964 0.326286 20.9071C0.135375 20.7178 0.0281221 20.461 0.0281221 20.1932V16.0041C0.0287141 15.8719 0.0554664 15.7412 0.106862 15.6192C0.157181 15.4961 0.231751 15.3843 0.326209 15.2901C0.422911 15.1986 0.535279 15.125 0.658042 15.0726C0.781347 15.0234 0.913214 14.9987 1.04612 15.0001H13.982C14.1156 14.9986 14.2482 15.0235 14.372 15.0734C14.4958 15.1232 14.6084 15.197 14.7032 15.2905C14.7979 15.3839 14.873 15.4952 14.9239 15.6177C14.9749 15.7402 15.0007 15.8716 15 16.0041V47.5868C14.994 49.555 14.2015 51.4405 12.7962 52.8301C11.3908 54.2197 9.48729 55 7.5028 55Z" fill="white"/>
<path d="M12.9996 9.50232C12.9892 9.15377 12.8587 8.81884 12.6293 8.55165C12.3998 8.28447 12.0848 8.10064 11.7352 8.02989C11.385 7.96175 11.0215 8.01089 10.7035 8.16939C10.388 8.32898 10.1365 8.58731 9.98924 8.90302C9.84738 8.59053 9.60371 8.33261 9.29616 8.16939C9.05831 8.05324 8.79439 7.99731 8.52863 8.00674C8.26287 8.01617 8.0038 8.09066 7.77521 8.22336C7.54662 8.35606 7.35584 8.54271 7.22038 8.76619C7.08493 8.98966 7.00915 9.24279 7 9.50232C7.00395 9.86884 7.14079 10.2221 7.38622 10.4994C7.43796 10.5655 7.49845 10.6246 7.5661 10.6751L9.96808 13H10.0686L12.5446 10.5924C12.6985 10.4474 12.8177 10.271 12.8938 10.0758C12.968 9.89528 13.004 9.70196 12.9996 9.50749V9.50232Z" fill="#FF8A8F"/>
<path d="M5.97171 1.61586C5.98009 1.27183 5.86405 0.935672 5.64343 0.664903C5.42281 0.394133 5.11132 0.205572 4.76224 0.131473C4.41433 0.0565999 4.05033 0.0974026 3.7296 0.247228C3.42211 0.392652 3.17337 0.632115 3.02231 0.928141C2.86099 0.557933 2.55351 0.264583 2.16752 0.112625C1.78153 -0.0393334 1.34864 -0.037452 0.964096 0.117855C0.579547 0.273162 0.274832 0.569171 0.116988 0.940767C-0.0408571 1.31236 -0.0389028 1.7291 0.12242 2.09931C0.183024 2.27465 0.279188 2.43667 0.405336 2.57595L0.575085 2.73937L2.95158 5H3.05767L5.54026 2.62361C5.68483 2.48511 5.80013 2.32093 5.87976 2.14017C5.9582 1.96127 5.99907 1.76919 6 1.57501L5.97171 1.61586Z" fill="#FF8A8F"/>
<path d="M9.9775 23.2313C9.97779 22.9527 9.87656 22.6823 9.69066 22.4652C9.50322 22.2489 9.24368 22.0981 8.95388 22.0372C8.66261 21.9792 8.35897 22.0165 8.09336 22.1429C7.83128 22.2605 7.6192 22.4579 7.49156 22.703C7.36628 22.4525 7.15407 22.2494 6.88976 22.1271C6.62473 22.0048 6.32377 21.9695 6.03487 22.0267C5.74465 22.0833 5.4843 22.2327 5.29809 22.4494C5.10652 22.6704 5.00131 22.9463 5 23.2313C5.00105 23.3685 5.02771 23.5044 5.07874 23.6329C5.13366 23.7758 5.21558 23.9083 5.32058 24.0239C5.36365 24.0732 5.41273 24.1175 5.46682 24.156L7.45219 26H7.54218L9.61755 24.0926C9.73932 23.979 9.8367 23.8445 9.90439 23.6963C9.9668 23.5483 9.99922 23.3906 10 23.2313H9.9775Z" fill="#FF8A8F"/>
<defs>
<clipPath id="clip0_317_882">
<rect width="193" height="45" fill="white" transform="translate(20 19)"/>
</clipPath>
</defs>
</svg>
