<svg width="186" height="50" viewBox="0 0 186 50" fill="none" xmlns="http://www.w3.org/2000/svg">
<path d="M6.79724 40.7451C5.26971 40.7467 3.8034 40.1634 2.71717 39.1221C2.18133 38.6083 1.75529 37.9971 1.46342 37.3233C1.17155 36.6496 1.0196 35.9267 1.01627 35.1959L0.965961 17.3429C0.965394 17.1417 1.04726 16.9485 1.19356 16.8059C1.33986 16.6632 1.53861 16.5827 1.74607 16.5821C1.95353 16.5816 2.15273 16.6609 2.29983 16.8028C2.44693 16.9446 2.52989 17.1373 2.53045 17.3385L2.58075 35.1873C2.58397 35.7215 2.69677 36.2498 2.91259 36.7413C3.1284 37.2329 3.44293 37.6778 3.83783 38.0503C4.6275 38.8099 5.6957 39.2348 6.80811 39.2317C7.92052 39.2285 8.9863 38.7977 9.77167 38.0336C10.1613 37.6575 10.4702 37.2101 10.6802 36.7175C10.8903 36.2248 10.9974 35.6966 10.9953 35.1636L10.9306 12.1894L2.53762 12.213L2.54436 14.606C2.54493 14.8072 2.46306 15.0003 2.31676 15.143C2.17046 15.2857 1.97172 15.3662 1.76425 15.3667C1.55679 15.3673 1.3576 15.288 1.2105 15.1461C1.0634 15.0043 0.980437 14.8116 0.97987 14.6104L0.971001 11.4631C0.971176 11.3638 0.991456 11.2655 1.03069 11.1737C1.0691 11.0812 1.12616 10.9969 1.19854 10.926C1.27266 10.8571 1.35885 10.8015 1.45307 10.7618C1.54772 10.7246 1.64899 10.7058 1.75112 10.7065L11.6913 10.6785C11.794 10.6771 11.8959 10.6955 11.9911 10.7327C12.0864 10.7699 12.173 10.8251 12.2461 10.8952C12.3191 10.9652 12.377 11.0486 12.4164 11.1405C12.4558 11.2324 12.4759 11.3311 12.4756 11.4307L12.5425 35.1592C12.5421 36.6379 11.9371 38.0562 10.8602 39.1033C9.78322 40.1504 8.32216 40.7408 6.79724 40.7451Z" fill="#010101"/>
<path d="M3.59961 22.417L3.63547 35.1415C3.63776 35.9546 3.97115 36.7335 4.56229 37.3068C5.15344 37.8801 5.95392 38.2008 6.78763 38.1985C7.62135 38.1961 8.42001 37.8709 9.00791 37.2942C9.59582 36.7176 9.92481 35.9369 9.92252 35.1238L9.88667 22.3993L3.59961 22.417Z" fill="#E94445"/>
<path d="M10.8899 6.65838C10.881 6.40985 10.7778 6.17129 10.5969 5.98127C10.4161 5.79124 10.1682 5.66085 9.89322 5.61117C9.61789 5.56335 9.33234 5.5992 9.08272 5.71293C8.83513 5.82744 8.638 6.01221 8.52288 6.23767C8.41076 6.01515 8.21875 5.83176 7.97673 5.71605C7.78957 5.63375 7.58204 5.59445 7.37321 5.60176C7.16438 5.60908 6.96093 5.66277 6.78155 5.7579C6.60217 5.85304 6.45261 5.98657 6.34661 6.14623C6.24061 6.3059 6.18156 6.48657 6.17489 6.67167C6.17874 6.93302 6.28699 7.18465 6.48042 7.38187C6.52122 7.42887 6.56887 7.47086 6.62214 7.50674L8.51448 9.15933L8.59348 9.15911L10.5345 7.43676C10.6552 7.33298 10.7485 7.20692 10.8079 7.06757C10.8658 6.93867 10.8937 6.80073 10.8899 6.66206L10.8899 6.65838Z" fill="#E94445"/>
<path d="M5.6158 1.49594C5.62106 1.28564 5.53942 1.0804 5.38484 0.915325C5.23025 0.750254 5.01233 0.635611 4.76835 0.591006C4.52519 0.545926 4.27098 0.571582 4.04719 0.663793C3.83264 0.753287 3.65929 0.900146 3.55428 1.08139C3.44094 0.855418 3.22565 0.676716 2.95575 0.584593C2.68585 0.49247 2.38345 0.494473 2.11509 0.590159C1.84673 0.685846 1.63437 0.867378 1.52475 1.09482C1.41513 1.32227 1.41721 1.57699 1.53054 1.80296C1.57318 1.91002 1.64063 2.00885 1.729 2.09374L1.84786 2.1933L3.51188 3.5704L3.58599 3.57019L5.31614 2.11277C5.41689 2.02783 5.49715 1.92724 5.55247 1.8166C5.60696 1.70709 5.63517 1.58961 5.63549 1.47091L5.6158 1.49594Z" fill="#E94445"/>
<path d="M8.28438 16.7225C8.28396 16.5096 8.21974 16.3032 8.10239 16.1377C7.98408 15.9727 7.82058 15.858 7.63825 15.812C7.455 15.7681 7.26418 15.7972 7.09747 15.8942C6.93295 15.9846 6.80004 16.1357 6.72032 16.3232C6.64101 16.132 6.50716 15.9772 6.34072 15.8843C6.17383 15.7913 5.98454 15.7649 5.80303 15.8091C5.62069 15.8529 5.45733 15.9675 5.34072 16.1333C5.22076 16.3025 5.15521 16.5136 5.15499 16.7313C5.15595 16.8361 5.173 16.9399 5.20536 17.038C5.2402 17.1471 5.29199 17.2482 5.35825 17.3363C5.38544 17.3739 5.41639 17.4077 5.45048 17.437L6.70266 18.8424L6.75924 18.8422L8.05993 17.3812C8.13624 17.2942 8.19717 17.1912 8.23941 17.0779C8.27833 16.9647 8.29838 16.8441 8.29852 16.7225L8.28438 16.7225Z" fill="#E94445"/>
<g clip-path="url(#clip0_313_735)">
<path fill-rule="evenodd" clip-rule="evenodd" d="M83.2943 13.3754C82.6564 13.2616 81.9549 13.4739 81.197 13.5484C81.0607 13.3048 80.8962 12.9411 80.6705 12.6177C80.146 11.8674 79.5032 11.3395 78.594 11.4301C77.7449 11.5156 76.8827 12.118 76.6618 12.9474C76.4887 13.6014 76.4326 14.3463 76.567 15.004C76.8581 16.4233 77.3194 17.8116 76.8924 19.2782C76.8763 19.3333 76.8008 19.5016 76.7251 19.5981C79.1609 19.445 81.7898 19.0097 83.8517 17.6317C84.7156 17.0542 85.2424 16.2102 85.0712 15.1288C84.9165 14.1522 84.2258 13.5419 83.2943 13.3754Z" fill="#EB1D25"/>
<path d="M81.987 21.48L76.7227 21.4949L76.7721 39.0441L82.0365 39.0292L81.987 21.48Z" fill="#242424"/>
<path d="M131.753 33.8669L131.699 14.7127L126.436 14.7275L126.49 33.8817L126.503 38.5867L131.767 38.5719L143.338 38.5393L143.325 33.8343L131.753 33.8669Z" fill="#242424"/>
<path d="M65.0018 28.687L65.0017 28.6417L64.9954 28.6417C64.3055 24.2127 60.2947 20.8204 55.4589 20.834C50.1469 20.849 45.8534 24.965 45.8676 30.0276C45.8819 35.0902 50.199 39.182 55.5106 39.1671C57.0776 39.1627 58.5546 38.7984 59.86 38.1615L59.8619 38.8405L65.0304 38.826L65.0091 31.2609C65.0702 30.8405 65.0653 29.1081 65.0018 28.687ZM55.4959 33.9685C53.1802 33.975 51.2985 32.1914 51.2922 29.9848C51.286 27.7778 53.1577 25.9841 55.4734 25.9776C57.7891 25.971 59.6703 27.7541 59.6765 29.9612C59.6828 32.1678 57.8116 33.962 55.4959 33.9685Z" fill="#242424"/>
<path d="M162.448 28.0857L162.448 28.0404L162.44 28.0404C161.751 23.6113 157.739 20.219 152.904 20.2327C147.592 20.2476 143.299 24.3637 143.313 29.4263C143.327 34.4889 147.644 38.5807 152.955 38.5658C154.523 38.5613 156 38.197 157.305 37.5597L157.307 38.2392L162.476 38.2246L162.455 30.659C162.514 30.2381 162.509 28.5058 162.448 28.0857ZM152.941 33.3667C150.625 33.3732 148.743 31.5896 148.737 29.383C148.731 27.1754 150.602 25.3817 152.918 25.3752C155.234 25.3687 157.116 27.1518 157.122 29.3594C157.128 31.5665 155.256 33.3601 152.941 33.3667Z" fill="#242424"/>
<path d="M174.013 20.1732C172.377 20.1779 170.837 20.5652 169.486 21.2434C169.48 18.9452 169.473 16.6474 169.467 14.3461C167.73 14.351 166.131 14.3555 164.332 14.3606C164.354 22.0118 164.375 29.527 164.396 37.0661C164.411 37.066 164.427 37.066 164.443 37.0659L164.446 38.2191L169.667 38.2044L169.665 37.5249C170.987 38.1549 172.481 38.5108 174.064 38.5063C179.429 38.4912 183.767 34.375 183.753 29.3124C183.738 24.2498 179.378 20.1581 174.013 20.1732ZM174.05 33.3072C171.711 33.3138 169.81 31.5303 169.804 29.3237C169.798 27.1161 171.689 25.3224 174.027 25.3158C176.367 25.3092 178.268 27.0922 178.274 29.2998C178.28 31.5069 176.389 33.3006 174.05 33.3072Z" fill="#242424"/>
<path d="M75.2726 25.8982L75.2595 21.2482L71.3961 21.2591L71.3728 13.0069L66.1074 13.0217L66.162 32.3995L66.1825 32.3995C66.39 35.3807 68.3252 37.0078 68.3252 37.0078C70.6555 39.5797 75.2644 38.9738 75.2644 38.9738L75.1353 33.8815L73.3728 33.8864C71.5446 33.8116 71.4246 31.5697 71.4246 31.5697L71.4087 25.9091L75.2726 25.8982Z" fill="#242424"/>
<path d="M91.1789 20.7216C82.4074 21.0922 83.027 28.6647 83.027 28.6647L83.031 30.0731L83.0553 38.686L88.0509 38.6719L88.023 28.7754C88.3471 26.1141 90.6284 25.5917 90.6284 25.5917C93.589 25.3643 94.0143 29.2282 94.0143 29.2282L94.0408 38.655L99.0375 38.641L99.0096 28.7445L99.0088 28.4562L99.0086 28.3844C98.0512 20.6981 91.1789 20.7216 91.1789 20.7216Z" fill="#242424"/>
<path d="M118.387 40.5039L118.355 29.0141L118.337 29.0142C118.031 24.2071 113.902 20.4066 108.861 20.4208C103.629 20.4356 99.4022 24.552 99.4165 29.6146C99.4307 34.6766 103.681 38.7687 108.913 38.7539C110.532 38.7494 112.053 38.3513 113.383 37.6543L113.392 40.7212L113.266 41.4077C112.629 43.7694 109.281 43.6907 107.688 43.4451C106.093 43.199 105.616 40.1645 105.616 40.1645L99.9351 40.1805C100.006 42.2789 101.509 44.6371 101.509 44.6371C103.999 48.5889 107.991 48.8278 107.991 48.8278C112.501 49.5195 115.745 46.881 117.22 44.8424C118.695 42.8033 118.387 40.5039 118.387 40.5039ZM108.897 33.5543C106.617 33.5607 104.764 31.7776 104.758 29.5705C104.752 27.3639 106.594 25.5698 108.874 25.5634C111.156 25.5569 113.007 27.3406 113.014 29.5472C113.02 31.7548 111.178 33.5479 108.897 33.5543Z" fill="#242424"/>
<path d="M45.3471 25.664C45.3541 28.1426 44.8023 30.3639 43.6924 32.3271C42.5825 34.2903 41.1769 35.7995 39.4766 36.8525C38.0567 37.75 36.5111 38.3294 34.839 38.5908C33.1668 38.8513 31.3858 38.9846 29.4987 38.99L20.9305 39.0141L20.8555 12.3977L29.3498 12.3738C31.2747 12.3683 33.0768 12.4819 34.7566 12.7156C36.4365 12.9498 38.013 13.5234 39.4868 14.4362C41.2917 15.5512 42.7179 17.0574 43.7658 18.9555C44.8117 20.854 45.3398 23.0897 45.3471 25.664ZM38.2866 25.6304C38.2816 23.8787 37.9672 22.381 37.3455 21.1374C36.7238 19.8937 35.767 18.9225 34.4782 18.2227C33.5453 17.7251 32.5663 17.4533 31.5435 17.4093C30.5196 17.3643 29.2967 17.3438 27.8748 17.3478L27.7459 17.3482L27.7929 34.008L27.9218 34.0077C29.4658 34.0033 30.7687 33.9726 31.8284 33.9162C32.8882 33.8597 33.8958 33.5385 34.8503 32.9516C35.9759 32.2572 36.8314 31.3012 37.4168 30.0842C38.0012 28.8667 38.2915 27.3821 38.2866 25.6304Z" fill="#242424"/>
</g>
<defs>
<clipPath id="clip0_313_735">
<rect width="165.036" height="37.6932" fill="white" transform="translate(20.8574 11.6714) rotate(-0.16146)"/>
</clipPath>
</defs>
</svg>
