<svg width="19" height="18" viewBox="0 0 19 18" fill="none" xmlns="http://www.w3.org/2000/svg">
<path d="M2.44531 18.002C1.89531 18.002 1.42465 17.8063 1.03331 17.415C0.641979 17.0236 0.445979 16.5526 0.445312 16.002V12.002H2.44531V16.002H16.4453V2.00195H2.44531V6.00195H0.445312V2.00195C0.445312 1.45195 0.641313 0.981287 1.03331 0.589953C1.42531 0.19862 1.89598 0.00261979 2.44531 0.00195312H16.4453C16.9953 0.00195312 17.4663 0.197953 17.8583 0.589953C18.2503 0.981953 18.446 1.45262 18.4453 2.00195V16.002C18.4453 16.552 18.2496 17.023 17.8583 17.415C17.467 17.807 16.996 18.0026 16.4453 18.002H2.44531ZM7.94531 14.002L6.54531 12.552L9.09531 10.002H0.445312V8.00195H9.09531L6.54531 5.45195L7.94531 4.00195L12.9453 9.00195L7.94531 14.002Z" fill="black"/>
</svg>
