<svg width="186" height="50" viewBox="0 0 186 50" fill="none" xmlns="http://www.w3.org/2000/svg">
<path d="M6.79627 40.7453C5.26873 40.7469 3.80242 40.1636 2.7162 39.1224C2.18036 38.6086 1.75431 37.9973 1.46244 37.3236C1.17058 36.6499 1.01863 35.9269 1.01529 35.1961L0.964984 17.3431C0.964417 17.142 1.04629 16.9488 1.19259 16.8061C1.33889 16.6635 1.53763 16.583 1.74509 16.5824C1.95256 16.5818 2.15175 16.6612 2.29885 16.803C2.44595 16.9448 2.52891 17.1375 2.52948 17.3387L2.57978 35.1875C2.58299 35.7218 2.69579 36.25 2.91161 36.7416C3.12743 37.2331 3.44195 37.6781 3.83686 38.0505C4.62652 38.8102 5.69472 39.235 6.80713 39.2319C7.91954 39.2288 8.98533 38.7979 9.7707 38.0338C10.1604 37.6577 10.4692 37.2104 10.6792 36.7177C10.8893 36.2251 10.9964 35.6969 10.9943 35.1638L10.9296 12.1896L2.53664 12.2133L2.54339 14.6062C2.54395 14.8074 2.46208 15.0006 2.31578 15.1433C2.16949 15.2859 1.97074 15.3664 1.76328 15.367C1.55581 15.3676 1.35662 15.2882 1.20952 15.1464C1.06242 15.0045 0.979461 14.8118 0.978894 14.6106L0.970024 11.4633C0.9702 11.364 0.99048 11.2657 1.02971 11.174C1.06812 11.0814 1.12518 10.9972 1.19757 10.9262C1.27168 10.8573 1.35787 10.8017 1.45209 10.7621C1.54674 10.7249 1.64802 10.7061 1.75015 10.7068L11.6903 10.6788C11.793 10.6774 11.8949 10.6958 11.9902 10.733C12.0854 10.7702 12.1721 10.8254 12.2451 10.8954C12.3181 10.9654 12.376 11.0488 12.4154 11.1408C12.4548 11.2327 12.475 11.3313 12.4747 11.4309L12.5415 35.1594C12.5411 36.6382 11.9361 38.0565 10.8592 39.1036C9.78224 40.1506 8.32118 40.741 6.79627 40.7453Z" fill="#010101"/>
<path d="M3.59863 22.417L3.63449 35.1415C3.63678 35.9546 3.97017 36.7335 4.56132 37.3068C5.15246 37.8801 5.95294 38.2008 6.78666 38.1985C7.62037 38.1961 8.41903 37.8709 9.00694 37.2942C9.59484 36.7176 9.92384 35.9369 9.92155 35.1238L9.88569 22.3993L3.59863 22.417Z" fill="#E94445"/>
<path d="M10.8899 6.65862C10.881 6.41009 10.7778 6.17154 10.5969 5.98151C10.4161 5.79149 10.1682 5.6611 9.89322 5.61141C9.61789 5.5636 9.33234 5.59945 9.08272 5.71317C8.83513 5.82768 8.638 6.01245 8.52288 6.23792C8.41076 6.0154 8.21875 5.83201 7.97673 5.71629C7.78957 5.63399 7.58204 5.59469 7.37321 5.60201C7.16438 5.60932 6.96093 5.66301 6.78155 5.75815C6.60217 5.85328 6.45261 5.98681 6.34661 6.14648C6.24061 6.30614 6.18156 6.48682 6.17489 6.67191C6.17874 6.93327 6.28699 7.1849 6.48042 7.38212C6.52122 7.42911 6.56887 7.4711 6.62214 7.50698L8.51448 9.15957L8.59348 9.15935L10.5345 7.43701C10.6552 7.33322 10.7485 7.20717 10.8079 7.06781C10.8658 6.93891 10.8937 6.80098 10.8899 6.66231L10.8899 6.65862Z" fill="#E94445"/>
<path d="M5.61677 1.49545C5.62204 1.28515 5.5404 1.07991 5.38581 0.914836C5.23123 0.749766 5.01331 0.635123 4.76933 0.590518C4.52616 0.545437 4.27196 0.571094 4.04816 0.663305C3.83361 0.752799 3.66026 0.899658 3.55525 1.0809C3.44192 0.85493 3.22662 0.676228 2.95672 0.584105C2.68682 0.491982 2.38443 0.493984 2.11607 0.589671C1.8477 0.685357 1.63535 0.86689 1.52573 1.09433C1.4161 1.32178 1.41819 1.5765 1.53152 1.80247C1.57415 1.90953 1.64161 2.00837 1.72997 2.09325L1.84883 2.19281L3.51286 3.56991L3.58697 3.56971L5.31712 2.11228C5.41787 2.02734 5.49813 1.92676 5.55345 1.81611C5.60793 1.70661 5.63615 1.58912 5.63647 1.47043L5.61677 1.49545Z" fill="#E94445"/>
<path d="M8.28438 16.722C8.28396 16.5091 8.21974 16.3027 8.10239 16.1372C7.98408 15.9722 7.82058 15.8575 7.63825 15.8115C7.455 15.7677 7.26418 15.7967 7.09747 15.8937C6.93295 15.9841 6.80004 16.1352 6.72032 16.3227C6.64101 16.1315 6.50716 15.9768 6.34072 15.8838C6.17383 15.7909 5.98454 15.7644 5.80303 15.8086C5.62069 15.8524 5.45733 15.967 5.34072 16.1328C5.22076 16.302 5.15521 16.5131 5.15499 16.7308C5.15595 16.8356 5.173 16.9394 5.20536 17.0375C5.2402 17.1466 5.29199 17.2477 5.35825 17.3358C5.38544 17.3734 5.41639 17.4072 5.45048 17.4365L6.70266 18.8419L6.75924 18.8417L8.05993 17.3807C8.13624 17.2937 8.19717 17.1907 8.23941 17.0774C8.27833 16.9642 8.29838 16.8437 8.29852 16.722L8.28438 16.722Z" fill="#E94445"/>
<g clip-path="url(#clip0_313_735)">
<path fill-rule="evenodd" clip-rule="evenodd" d="M83.2953 13.3757C82.6574 13.2618 81.9559 13.4742 81.198 13.5487C81.0616 13.305 80.8971 12.9413 80.6715 12.618C80.147 11.8676 79.5042 11.3397 78.5949 11.4304C77.7459 11.5158 76.8836 12.1183 76.6628 12.9476C76.4896 13.6017 76.4336 14.3465 76.568 15.0042C76.8591 16.4235 77.3204 17.8118 76.8934 19.2785C76.8773 19.3335 76.8018 19.5018 76.7261 19.5983C79.1619 19.4453 81.7908 19.01 83.8527 17.6319C84.7166 17.0544 85.2434 16.2104 85.0722 15.129C84.9175 14.1525 84.2268 13.5422 83.2953 13.3757Z" fill="#EB1D25"/>
<path d="M81.988 21.4803L76.7236 21.4951L76.7731 39.0443L82.0374 39.0295L81.988 21.4803Z" fill="#242424"/>
<path d="M131.754 33.8679L131.7 14.7137L126.437 14.7285L126.491 33.8827L126.504 38.5877L131.768 38.5729L143.339 38.5403L143.326 33.8353L131.754 33.8679Z" fill="#242424"/>
<path d="M65.0028 28.6873L65.0026 28.642L64.9964 28.642C64.3064 24.2129 60.2957 20.8206 55.4599 20.8342C50.1478 20.8492 45.8543 24.9653 45.8686 30.0279C45.8829 35.0905 50.2 39.1823 55.5115 39.1673C57.0786 39.1629 58.5555 38.7986 59.8609 38.1618L59.8629 38.8408L65.0313 38.8262L65.01 31.2611C65.0712 30.8407 65.0663 29.1084 65.0028 28.6873ZM55.4969 33.9687C53.1812 33.9753 51.2994 32.1916 51.2932 29.9851C51.287 27.778 53.1586 25.9843 55.4744 25.9778C57.7901 25.9713 59.6713 27.7544 59.6775 29.9615C59.6837 32.168 57.8126 33.9622 55.4969 33.9687Z" fill="#242424"/>
<path d="M162.449 28.0857L162.448 28.0404L162.441 28.0404C161.752 23.6113 157.74 20.219 152.905 20.2327C147.593 20.2476 143.3 24.3637 143.314 29.4263C143.328 34.4889 147.645 38.5807 152.956 38.5658C154.524 38.5613 156.001 38.197 157.306 37.5597L157.308 38.2392L162.477 38.2246L162.456 30.659C162.515 30.2381 162.51 28.5058 162.449 28.0857ZM152.942 33.3667C150.626 33.3732 148.744 31.5896 148.738 29.383C148.732 27.1754 150.603 25.3817 152.919 25.3752C155.235 25.3687 157.117 27.1518 157.123 29.3594C157.129 31.5665 155.257 33.3601 152.942 33.3667Z" fill="#242424"/>
<path d="M174.014 20.174C172.378 20.1786 170.838 20.566 169.487 21.2442C169.481 18.9459 169.474 16.6482 169.468 14.3469C167.731 14.3518 166.132 14.3563 164.333 14.3613C164.355 22.0125 164.376 29.5277 164.397 37.0668C164.412 37.0668 164.428 37.0667 164.444 37.0667L164.447 38.2199L169.668 38.2052L169.666 37.5257C170.988 38.1556 172.482 38.5115 174.065 38.5071C179.43 38.4919 183.768 34.3757 183.754 29.3131C183.739 24.2506 179.379 20.1589 174.014 20.174ZM174.051 33.308C171.712 33.3146 169.811 31.531 169.805 29.3244C169.799 27.1168 171.69 25.3231 174.028 25.3165C176.368 25.3099 178.269 27.093 178.275 29.3006C178.281 31.5077 176.39 33.3014 174.051 33.308Z" fill="#242424"/>
<path d="M75.2736 25.899L75.2605 21.249L71.3971 21.2599L71.3738 13.0076L66.1084 13.0225L66.163 32.4003L66.1834 32.4002C66.3909 35.3815 68.3262 37.0085 68.3262 37.0085C70.6565 39.5804 75.2654 38.9745 75.2654 38.9745L75.1363 33.8822L73.3738 33.8872C71.5456 33.8123 71.4256 31.5704 71.4256 31.5704L71.4096 25.9099L75.2736 25.899Z" fill="#242424"/>
<path d="M91.1799 20.7221C82.4083 21.0926 83.028 28.6652 83.028 28.6652L83.032 30.0736L83.0563 38.6865L88.0518 38.6724L88.0239 28.7759C88.3481 26.1146 90.6294 25.5922 90.6294 25.5922C93.59 25.3648 94.0153 29.2287 94.0153 29.2287L94.0418 38.6555L99.0385 38.6414L99.0106 28.745L99.0098 28.4567L99.0096 28.3849C98.0522 20.6986 91.1799 20.7221 91.1799 20.7221Z" fill="#242424"/>
<path d="M118.388 40.5046L118.356 29.0149L118.338 29.0149C118.032 24.2078 113.903 20.4073 108.862 20.4216C103.63 20.4363 99.4032 24.5527 99.4174 29.6153C99.4317 34.6774 103.682 38.7694 108.914 38.7546C110.533 38.7501 112.054 38.3521 113.384 37.6551L113.393 40.7219L113.267 41.4084C112.63 43.7701 109.282 43.6914 107.689 43.4458C106.094 43.1997 105.617 40.1652 105.617 40.1652L99.936 40.1812C100.007 42.2796 101.51 44.6378 101.51 44.6378C104 48.5896 107.992 48.8285 107.992 48.8285C112.502 49.5202 115.746 46.8817 117.221 44.8432C118.696 42.8041 118.388 40.5046 118.388 40.5046ZM108.898 33.555C106.618 33.5615 104.765 31.7783 104.759 29.5712C104.753 27.3646 106.595 25.5705 108.875 25.5641C111.157 25.5577 113.008 27.3414 113.015 29.5479C113.021 31.7555 111.179 33.5486 108.898 33.555Z" fill="#242424"/>
<path d="M45.349 25.6647C45.356 28.1433 44.8043 30.3647 43.6944 32.3279C42.5845 34.291 41.1789 35.8002 39.4785 36.8533C38.0586 37.7507 36.5131 38.3301 34.8409 38.5916C33.1688 38.852 31.3878 38.9854 29.5006 38.9907L20.9324 39.0148L20.8574 12.3984L29.3518 12.3745C31.2766 12.3691 33.0787 12.4827 34.7586 12.7163C36.4384 12.9505 38.015 13.5242 39.4887 14.4369C41.2936 15.5519 42.7198 17.0582 43.7678 18.9562C44.8136 20.8547 45.3418 23.0904 45.349 25.6647ZM38.2885 25.6311C38.2836 23.8794 37.9692 22.3817 37.3475 21.1381C36.7257 19.8944 35.7689 18.9232 34.4802 18.2234C33.5472 17.7258 32.5683 17.454 31.5455 17.4101C30.5216 17.3651 29.2987 17.3446 27.8768 17.3486L27.7479 17.3489L27.7948 34.0088L27.9237 34.0084C29.4677 34.0041 30.7706 33.9734 31.8304 33.9169C32.8901 33.8604 33.8978 33.5392 34.8523 32.9523C35.9778 32.2579 36.8333 31.302 37.4188 30.085C38.0032 28.8675 38.2935 27.3828 38.2885 25.6311Z" fill="#242424"/>
</g>
<defs>
<clipPath id="clip0_313_735">
<rect width="165.036" height="37.6932" fill="white" transform="translate(20.8584 11.6719) rotate(-0.16146)"/>
</clipPath>
</defs>
</svg>
