<svg width="41" height="58" viewBox="0 0 41 58" fill="none" xmlns="http://www.w3.org/2000/svg">
<path d="M21.542 0.744141C33.3669 0.744141 39.2793 5.53548 39.2793 15.1182C39.2793 17.2002 38.7588 19.4023 37.7178 21.7246C36.6768 24.0469 35.4355 26.0488 33.9941 27.7305L22.1025 42.0244C20.3141 44.0531 18.1921 46.0951 15.7363 48.1504L14.415 49.3115L14.8154 50.1924C17.3512 49.7119 20.0339 49.4717 22.8633 49.4717H29.3496C29.7233 46.4554 30.404 44.1064 31.3916 42.4248L39.1592 42.9053C40.387 44.9606 41.001 48.2705 41.001 52.835C41.001 54.7568 40.8008 56.4785 40.4004 58H2.76367L0.801758 47.8301L21.2217 25.6885C25.0387 21.4977 26.9473 17.5072 26.9473 13.7168C26.9473 11.7148 26.4668 10.2601 25.5059 9.35254C24.8118 8.71191 23.7575 8.29818 22.3428 8.11133C20.9281 7.92448 19.4333 7.92448 17.8584 8.11133C16.2835 8.27148 14.9222 8.57845 13.7744 9.03223C13.2406 13.1162 12.5999 15.7721 11.8525 17L4.56543 16.5996C3.55111 14.8112 2.97721 11.7682 2.84375 7.4707C2.84375 7.01693 2.84375 6.62988 2.84375 6.30957C2.87044 5.96257 2.89714 5.69564 2.92383 5.50879C7.86198 2.33236 14.068 0.744141 21.542 0.744141Z" fill="white"/>
</svg>
