<svg width="39" height="59" viewBox="0 0 39 59" fill="none" xmlns="http://www.w3.org/2000/svg">
<path d="M2.2832 5.18848C2.2832 4.81478 2.2832 4.48112 2.2832 4.1875C2.3099 3.89388 2.33659 3.62695 2.36328 3.38672C3.27083 2.93294 4.63216 2.50586 6.44727 2.10547C8.26237 1.70508 10.1842 1.38477 12.2129 1.14453C14.2682 0.877604 16.0833 0.744141 17.6582 0.744141C20.0339 0.744141 22.196 0.971029 24.1445 1.4248C26.1198 1.85189 28.0417 2.57259 29.9102 3.58691C31.7786 4.60124 33.2334 6.10938 34.2744 8.11133C35.3421 10.1133 35.876 12.3555 35.876 14.8379C35.876 17.3203 35.1419 19.6426 33.6738 21.8047C32.2057 23.9668 30.4574 25.5951 28.4287 26.6895V27.4102C34.8883 29.7057 38.1182 33.9499 38.1182 40.1426C38.1182 44.2799 37.1172 47.7233 35.1152 50.4727C33.14 53.1953 30.3773 55.2373 26.8271 56.5986C23.3037 57.96 19.2197 58.6406 14.5752 58.6406C13.1338 58.6406 11.5322 58.4938 9.77051 58.2002C8.03548 57.9066 6.38053 57.5329 4.80566 57.0791C3.23079 56.5986 1.94954 56.1182 0.961914 55.6377L2.84375 48.5508C6.44727 49.9388 9.91732 50.6328 13.2539 50.6328C21.2884 50.6328 25.3057 47.7367 25.3057 41.9443C25.3057 35.3779 22.1159 32.0947 15.7363 32.0947C14.4284 32.0947 13.1605 32.1214 11.9326 32.1748C10.7314 32.2282 9.55697 32.3083 8.40918 32.415L7.68848 25.5283L14.9756 24.8877C21.1683 24.3005 24.2646 21.3109 24.2646 15.9189C24.2646 13.1429 23.5973 11.1276 22.2627 9.87305C20.9548 8.61849 18.9928 7.99121 16.377 7.99121C15.416 7.99121 14.4284 8.07129 13.4141 8.23145C13.0404 11.2744 12.3597 13.57 11.3721 15.1182L4.08496 14.7178C2.88379 12.7959 2.2832 9.61947 2.2832 5.18848Z" fill="white"/>
</svg>
