<svg width="41" height="40" viewBox="0 0 41 40" fill="none" xmlns="http://www.w3.org/2000/svg">
<path d="M33.0218 29.9249C33.374 30.2772 33.5719 30.7549 33.5719 31.2531C33.5719 31.7512 33.374 32.2289 33.0218 32.5812C32.6696 32.9334 32.1918 33.1313 31.6937 33.1313C31.1955 33.1313 30.7178 32.9334 30.3656 32.5812L20.4452 22.6577L10.5218 32.5781C10.1696 32.9303 9.69183 33.1282 9.19368 33.1282C8.69554 33.1282 8.2178 32.9303 7.86556 32.5781C7.51332 32.2258 7.31543 31.7481 7.31543 31.2499C7.31543 30.7518 7.51332 30.274 7.86556 29.9218L17.789 20.0015L7.86868 10.0781C7.51644 9.72582 7.31855 9.24808 7.31855 8.74993C7.31855 8.25179 7.51644 7.77405 7.86868 7.42181C8.22092 7.06957 8.69866 6.87168 9.19681 6.87168C9.69495 6.87168 10.1727 7.06957 10.5249 7.42181L20.4452 17.3452L30.3687 7.42024C30.7209 7.068 31.1987 6.87012 31.6968 6.87012C32.1949 6.87012 32.6727 7.068 33.0249 7.42024C33.3772 7.77248 33.5751 8.25023 33.5751 8.74837C33.5751 9.24651 33.3772 9.72425 33.0249 10.0765L23.1015 20.0015L33.0218 29.9249Z" fill="#0F0F10"/>
</svg>
