<svg width="36" height="36" viewBox="0 0 36 36" fill="none" xmlns="http://www.w3.org/2000/svg">
<path fill-rule="evenodd" clip-rule="evenodd" d="M17.9453 35.502C8.28033 35.502 0.445312 27.6669 0.445312 18.002C0.445312 8.33697 8.28033 0.501953 17.9453 0.501953C27.6103 0.501953 35.4453 8.33697 35.4453 18.002C35.4453 27.6669 27.6103 35.502 17.9453 35.502ZM21.956 11.6495C21.8854 11.4823 21.7819 11.3303 21.6515 11.2023C21.1028 10.663 20.2023 10.663 19.6677 11.1885L13.2097 17.536C13.0793 17.664 12.9758 17.8159 12.9052 17.9832C12.8346 18.1505 12.7982 18.3299 12.7982 18.511C12.7982 18.6921 12.8346 18.8714 12.9052 19.0387C12.9758 19.206 13.0793 19.358 13.2097 19.4859L19.6677 25.8334C19.9307 26.092 20.2875 26.2373 20.6596 26.2373C21.0316 26.2373 21.3884 26.092 21.6515 25.8334C21.9145 25.5749 22.0623 25.2242 22.0623 24.8585C22.0623 24.4928 21.9145 24.1421 21.6515 23.8836L16.1924 18.5179L21.6515 13.1522C21.7819 13.0243 21.8854 12.8723 21.956 12.705C22.0266 12.5377 22.0629 12.3584 22.0629 12.1773C22.0629 11.9962 22.0266 11.8168 21.956 11.6495Z" fill="#585C5F"/>
</svg>
