<svg width="35" height="34" viewBox="0 0 35 34" fill="none" xmlns="http://www.w3.org/2000/svg">
<path fill-rule="evenodd" clip-rule="evenodd" d="M17.4453 34.002C26.8342 34.002 34.4453 26.3908 34.4453 17.002C34.4453 7.61311 26.8342 0.00195312 17.4453 0.00195312C8.05646 0.00195312 0.445312 7.61311 0.445312 17.002C0.445312 26.3908 8.05646 34.002 17.4453 34.002ZM13.5492 10.831C13.6178 10.6685 13.7183 10.5209 13.845 10.3966C14.3781 9.87267 15.2528 9.87267 15.7722 10.3832L22.0456 16.5493C22.1723 16.6736 22.2728 16.8212 22.3414 16.9837C22.41 17.1463 22.4453 17.3205 22.4453 17.4964C22.4453 17.6723 22.41 17.8466 22.3414 18.0091C22.2728 18.1716 22.1723 18.3192 22.0456 18.4435L15.7722 24.6097C15.5166 24.8608 15.17 25.002 14.8086 25.002C14.4472 25.002 14.1006 24.8608 13.845 24.6097C13.5894 24.3585 13.4459 24.0178 13.4459 23.6626C13.4459 23.3073 13.5894 22.9667 13.845 22.7155L19.1481 17.5031L13.845 12.2908C13.7183 12.1665 13.6178 12.0189 13.5492 11.8564C13.4806 11.6938 13.4453 11.5196 13.4453 11.3437C13.4453 11.1677 13.4806 10.9935 13.5492 10.831Z" fill="#585C5F"/>
</svg>
