<svg width="19" height="18" viewBox="0 0 19 18" fill="none" xmlns="http://www.w3.org/2000/svg">
<path d="M9.44531 0.00195312C10.6388 0.00195313 11.7834 0.476059 12.6273 1.31997C13.4712 2.16389 13.9453 3.30848 13.9453 4.50195C13.9453 5.69543 13.4712 6.84002 12.6273 7.68393C11.7834 8.52785 10.6388 9.00195 9.44531 9.00195C8.25184 9.00195 7.10725 8.52785 6.26333 7.68393C5.41942 6.84002 4.94531 5.69543 4.94531 4.50195C4.94531 3.30848 5.41942 2.16389 6.26333 1.31997C7.10725 0.476059 8.25184 0.00195313 9.44531 0.00195312ZM9.44531 2.25195C8.84858 2.25195 8.27628 2.48901 7.85432 2.91096C7.43237 3.33292 7.19531 3.90522 7.19531 4.50195C7.19531 5.09869 7.43237 5.67099 7.85432 6.09294C8.27628 6.5149 8.84858 6.75195 9.44531 6.75195C10.042 6.75195 10.6143 6.5149 11.0363 6.09294C11.4583 5.67099 11.6953 5.09869 11.6953 4.50195C11.6953 3.90522 11.4583 3.33292 11.0363 2.91096C10.6143 2.48901 10.042 2.25195 9.44531 2.25195ZM9.44531 10.127C12.4491 10.127 18.4453 11.6232 18.4453 14.627V18.002H0.445312V14.627C0.445312 11.6232 6.44156 10.127 9.44531 10.127ZM9.44531 12.2645C6.10406 12.2645 2.58281 13.907 2.58281 14.627V15.8645H16.3078V14.627C16.3078 13.907 12.7866 12.2645 9.44531 12.2645Z" fill="black"/>
</svg>
