<svg width="31" height="30" viewBox="0 0 31 30" fill="none" xmlns="http://www.w3.org/2000/svg">
<g clip-path="url(#clip0_321_3533)">
<path d="M15.5547 30.002C15.5547 30.002 5.05469 16.307 5.05469 10.502C5.05469 9.12307 5.32628 7.7577 5.85395 6.48378C6.38163 5.20986 7.15505 4.05235 8.13007 3.07733C9.10508 2.10232 10.2626 1.32889 11.5365 0.801218C12.8104 0.273544 14.1758 0.00195313 15.5547 0.00195312C16.9336 0.00195312 18.2989 0.273544 19.5729 0.801218C20.8468 1.32889 22.0043 2.10232 22.9793 3.07733C23.9543 4.05235 24.7277 5.20986 25.2554 6.48378C25.7831 7.7577 26.0547 9.12307 26.0547 10.502C26.0547 16.307 15.5547 30.002 15.5547 30.002ZM15.5547 13.502C16.3503 13.502 17.1134 13.1859 17.676 12.6233C18.2386 12.0607 18.5547 11.2976 18.5547 10.502C18.5547 9.7063 18.2386 8.94324 17.676 8.38063C17.1134 7.81802 16.3503 7.50195 15.5547 7.50195C14.759 7.50195 13.996 7.81802 13.4334 8.38063C12.8708 8.94324 12.5547 9.7063 12.5547 10.502C12.5547 11.2976 12.8708 12.0607 13.4334 12.6233C13.996 13.1859 14.759 13.502 15.5547 13.502Z" fill="black"/>
</g>
<defs>
<clipPath id="clip0_321_3533">
<rect width="30" height="30" fill="white" transform="translate(0.554688 0.00195312)"/>
</clipPath>
</defs>
</svg>
